<?xml version="1.0" encoding="UTF-8"?>
<svg version="1.1" viewBox="0 0 1600 1600" width="1280" height="1280" xmlns="http://www.w3.org/2000/svg">
<path transform="translate(0)" d="m0 0h1600v1600h-1600v-1600z" fill="#FDFDFD"/>
<path transform="translate(686,485)" d="m0 0c1.69 1.65 3.36 3.31 5 5 1.53 1.36 3.08 2.72 4.62 4.06 15 13.5 26.5 29.4 36.4 46.9 0.384 0.678 0.769 1.36 1.16 2.06 5.63 10 10.1 20.1 13.8 30.9 0.746 2.13 1.5 4.25 2.25 6.38 0.294 0.853 0.588 1.71 0.891 2.59 0.782 2.21 0.782 2.21 2.86 4.04 0.822-0.266 1.64-0.531 2.49-0.805 26.3-8.32 51-6.72 77.5-0.195 0.226-0.668 0.451-1.34 0.683-2.03 4.53-13.3 9.31-26 16.3-38.2 1.07-1.92 2.03-3.88 3-5.85 8.22-16.6 21-31.2 34-44.2 0.71-0.715 1.42-1.43 2.15-2.17 3.75-3.7 7.46-6.72 11.9-9.58 0.641-0.645 1.28-1.29 1.94-1.95 2.72-2.7 5.8-4.71 9-6.8 0.67-0.438 1.34-0.877 2.03-1.33 1.37-0.893 2.74-1.78 4.11-2.67 1.68-1.09 3.33-2.21 4.99-3.33 19.8-12.9 42.9-20.4 65.9-24.9 1.04-0.217 2.08-0.433 3.15-0.656 47.7-8.7 99.1 3.48 139 30.4 10.8 7.47 20.6 16 29.8 25.3 1.12 1.05 1.12 1.05 2.25 2.11 9.9 9.43 17.8 20.5 25 32 0.414 0.659 0.829 1.32 1.26 2 1.96 3.17 3.75 6.34 5.33 9.71 4.54 9.52 10.1 13.2 19.5 17.1 3.1 1.29 6.15 2.68 9.21 4.08 15.8 7.21 15.8 7.21 32.1 13.1 2.31 0.965 2.31 0.965 4.31 3.96 0.435 2.07 0.779 4.16 1.07 6.25 0.174 1.25 0.348 2.5 0.527 3.79 0.174 1.31 0.348 2.62 0.527 3.96 0.273 1.92 0.273 1.92 0.551 3.87 1.01 7.43 1.59 14.6 1.32 22.1-0.871 0.231-1.74 0.461-2.64 0.699-14.5 3.97-33.4 9.32-42.4 22.3-0.847 2.98-0.847 2.98-1 6.25-1.82 17.2-5.14 34.4-11 50.8-0.567 1.63-0.567 1.63-1.14 3.29-3.25 8.92-7.42 17.3-11.9 25.7-0.544 1.03-1.09 2.06-1.65 3.12-7.9 14.2-18.5 26.8-29.4 38.9-1.07 1.19-1.07 1.19-2.16 2.41-6.51 6.89-14.2 12.4-21.8 18-1.35 1.01-2.68 2.03-4.01 3.07-5.22 4.06-10.7 7.29-16.6 10.4-0.974 0.524-1.95 1.05-2.95 1.59-46.3 24.6-100 29.2-150 14.5-7.96-2.48-15.6-5.56-23.2-9-0.749-0.337-1.5-0.674-2.27-1.02-19.1-8.71-19.1-8.71-22.7-16-0.524-5.26-0.665-9.65 1.69-14.4 4.29-4.75 7.48-7.34 14-7.86 4.85 0.0676 8.46 1.8 12.7 3.98 0.691 0.34 1.38 0.679 2.09 1.03 2.98 1.47 5.95 2.97 8.88 4.54 6.36 3.35 12.7 5.5 19.7 7.37 1.09 0.299 2.18 0.598 3.3 0.907 45.5 12.2 90.1 5.1 131-18.3 11.8-7.28 23.3-16.4 31.9-27.2 0.807-0.802 1.61-1.6 2.45-2.43 2.72-2.73 5.1-5.63 7.43-8.7 0.435-0.571 0.87-1.14 1.32-1.73 16-21.2 25.5-45 29.8-71.1 0.226-1.24 0.451-2.48 0.684-3.75 4.22-26.1 0.704-53.3-7.68-78.2-0.225-0.673-0.449-1.35-0.681-2.04-6.15-17.8-16.7-35.1-29.3-49-6-6.8-6-6.8-6-9h-2v-2c-0.55-0.227-1.1-0.454-1.67-0.688-3.02-1.7-5.16-3.89-7.64-6.31-9.34-8.82-20-15.6-31.7-21-1.32-0.654-2.65-1.31-3.97-1.97-7.42-3.66-14.4-6.82-22.6-8.46-2.42-0.57-2.42-0.57-4.38-1.57-2.59-1.27-5-1.62-7.85-2.06-1.06-0.165-2.12-0.33-3.22-0.5-0.98-0.144-1.96-0.289-2.97-0.438-1.26-0.186-2.52-0.371-3.81-0.562-1.05-0.144-2.1-0.289-3.19-0.438-1.48-0.242-1.48-0.242-2.99-0.488-5.08-0.726-10.2-0.908-15.3-1.14-1-0.0516-2-0.103-3.03-0.156-0.955-0.0438-1.91-0.0877-2.89-0.133-0.867-0.0408-1.73-0.0815-2.63-0.124-2.19-0.115-2.19-0.115-4.14 1.04-1.56 0.0457-3.13 0.0383-4.69 0-8.47-0.0604-16.2 1.87-24.3 4-0.9 0.227-1.8 0.454-2.73 0.688-20.6 5.34-39.8 14-56.6 27.1-1.71 1.21-1.71 1.21-3.71 1.21-0.33 0.99-0.66 1.98-1 3-1.43 1.18-1.43 1.18-3.31 2.44-3.98 2.87-7.42 6.09-10.9 9.56-0.748 0.747-0.748 0.747-1.51 1.51-10.3 10.5-18.4 22.5-25.3 35.5-0.341 0.631-0.681 1.26-1.03 1.91-7.02 13.1-12 26.8-16 41.1 0.701 0.568 1.4 1.14 2.12 1.72 1.98 1.61 3.96 3.24 5.94 4.86 1.67 1.38 3.36 2.74 5.06 4.08 21 17 33.6 44.5 38.9 70.3 0.369 1.69 0.369 1.69 0.746 3.42 3.81 20.3 3.09 50.6-8.54 68.3-0.645 0.704-1.29 1.41-1.95 2.13-0.634 0.719-1.27 1.44-1.92 2.18-5.26 4.39-10.7 5.45-17.4 5.38-0.681 0.02-1.36 0.04-2.06 0.0605-6.37-0.00612-9.74-2.47-14.2-6.72-5.04-5.6-9.03-11.2-12.7-17.8-0.717-1.26-1.44-2.51-2.16-3.77-2.32-4.06-4.59-8.14-6.84-12.2-0.549-0.987-1.1-1.97-1.66-2.99-14.3-27-19-58-19.9-88.1-0.0433-1.35-0.0869-2.7-0.131-4.05-0.105-3.27-0.207-6.55-0.307-9.82-2.56-0.647-5.12-1.29-7.69-1.94-0.721-0.182-1.44-0.365-2.19-0.553-0.706-0.177-1.41-0.354-2.14-0.537-0.644-0.162-1.29-0.325-1.95-0.492-16-3.78-37.1-3.82-51.9 4.03-2.26 1.31-2.26 1.31-3.14 3.49-0.0838 1.99-0.108 3.98-0.105 5.96-0.394 48.4-12.9 90.9-42.6 130-0.653 0.865-0.653 0.865-1.32 1.75-3.84 4.89-7.68 7.93-13.7 9.63-6.4 0.541-11.8-3.36-16.9-6.89-10.1-9.16-12.7-25.9-14-38.9-0.193-3.15-0.193-3.15-1.39-5.27-1.74-23.1 1.83-45.1 12-66 0.429-0.944 0.859-1.89 1.3-2.86 6.71-14.3 16.9-28.2 29.3-38.1 0.899-0.716 0.899-0.716 1.82-1.45 1.16-0.905 2.34-1.79 3.54-2.64 3.06-2.36 4.01-3.7 4.66-7.54-0.469-5.92-2.47-11.6-4.35-17.2-0.398-1.19-0.795-2.37-1.2-3.6-5.31-15.1-13.5-28.6-22.7-41.6-1.33-2.08-1.33-2.08-1.33-4.08h-2c-0.0825-0.619-0.165-1.24-0.25-1.88-0.247-0.701-0.495-1.4-0.75-2.12-0.587-0.277-1.17-0.554-1.78-0.84-2.86-1.49-4.43-3.41-6.54-5.85-0.797-0.901-1.59-1.8-2.41-2.73-0.75-0.852-1.5-1.7-2.27-2.58-17.2-19.5-45.2-32.9-70-39-1.33-0.369-2.65-0.743-3.98-1.12-5.79-1.63-11-2.98-17-2.88-0.99-0.33-1.98-0.66-3-1-1.99 0-3.98 0.00123-5.96 0.0625-2.04-0.0625-2.04-0.0625-3.84-0.555-3.12-0.723-6.12-0.639-9.32-0.633-1.24-0.00258-2.48-0.00516-3.76-0.00781-3.02-0.0839-3.02-0.0839-5.12 1.13-1.5 0.0202-3-0.00794-4.5-0.0625-5.42-0.0386-10.2 0.802-15.5 2.06-1.17 0.268-2.35 0.536-3.55 0.812-26.8 6.27-51.5 17-72.2 35.4-2.26 1.84-2.26 1.84-4.26 1.84-0.33 0.99-0.66 1.98-1 3-1.46 1.37-1.46 1.37-3.38 2.88-3.86 3.27-7.12 6.83-10.4 10.7-0.459 0.542-0.919 1.08-1.39 1.64-10.2 12.2-18.8 27.1-24.9 41.8-0.251 0.61-0.502 1.22-0.76 1.85-9.07 22.3-18.1 55.7-10.2 79.2 0.128 1.77 0.229 3.54 0.312 5.31 0.558 7.24 2.53 13.8 4.69 20.7 0.431 1.56 0.431 1.56 0.871 3.14 7.35 26 21.7 47.5 40.1 66.9 0.758 0.799 1.52 1.6 2.3 2.42 3.38 3.48 6.45 6.19 10.7 8.58v2c0.568 0.269 1.14 0.539 1.72 0.816 2.37 1.23 4.53 2.63 6.74 4.13 38.2 25.4 82 35.4 127 26.5 17.9-3.85 34.1-10.6 50.4-18.6 4.1-1.89 7.34-2.23 11.8-1.84 4.26 2.09 7.13 4.59 9.29 8.88 1.48 4.43 1.65 8.55 0.707 13.1-7.41 14.4-31.8 21.4-46.1 26-6.25 1.86-12.6 3.5-18.9 5-0.787 0.191-1.57 0.381-2.39 0.578-4.49 1.05-8.81 1.72-13.4 1.98-4.04 0.18-4.04 0.18-7.98 0.945-2.84 0.634-5.49 0.623-8.4 0.626-1.79 0.00193-1.79 0.00193-3.61 0.00391-1.24-0.00387-2.48-0.00773-3.76-0.0117-1.24 0.00387-2.49 0.00773-3.77 0.0117-1.79-0.00193-1.79-0.00193-3.61-0.00391-1.09-0.00113-2.18-0.00226-3.3-0.00342-2.76-0.129-2.76-0.129-5.76-1.13-1.69-0.0197-3.38 0.00668-5.06 0.0625-18.1 0.0941-40-6.87-55.9-15.1-1.26-0.623-2.52-1.24-3.79-1.86-14.4-7.08-27.6-14.8-40.3-24.7-1.38-1.06-2.78-2.09-4.19-3.12-0.733-0.531-1.47-1.06-2.22-1.61-1.01-0.721-1.01-0.721-2.04-1.46-0.489-0.429-0.978-0.859-1.48-1.3v-2c-0.541-0.217-1.08-0.433-1.64-0.656-3.18-1.81-5.57-4.26-8.11-6.84-0.507-0.499-1.01-0.998-1.54-1.51-3.71-3.73-3.71-3.73-3.71-5.99-0.99-0.33-1.98-0.66-3-1-4-4.46-4-4.46-4-7h-2c-6.22-7.29-11.2-15.7-16-24-0.357-0.605-0.714-1.21-1.08-1.83-13.8-23.7-20.7-50.2-23.8-77.3-0.809-6.59-2.26-11.9-7.7-16.2-10.6-7.73-22.7-12.2-35.4-14.9-3-0.691-3-0.691-4-1.69-0.378-7.55-0.435-17.1 3-24 0.2-3.54 0.319-7.07 0.426-10.6 0.68-4.01 1.52-4.82 4.57-7.38 2.61-1.27 2.61-1.27 5.6-2.38 1.12-0.422 2.24-0.844 3.39-1.28 1.8-0.667 1.8-0.667 3.64-1.35 2.53-0.965 5.05-1.94 7.58-2.93 0.644-0.251 1.29-0.501 1.95-0.759 6.81-2.67 13.5-5.52 20.2-8.5 1.08-0.462 2.16-0.924 3.27-1.4 6.69-3.04 10.7-6.04 14.4-12.4 0.363-0.615 0.726-1.23 1.1-1.86 1.04-1.84 2.04-3.7 3.02-5.57 12.3-22.4 28.9-41.7 48.9-57.6 0.67-0.561 1.34-1.12 2.03-1.7 70-57.4 175-53.3 244 3.7z" fill="#020305"/>
<path transform="translate(686,485)" d="m0 0c1.69 1.65 3.36 3.31 5 5 1.53 1.36 3.08 2.72 4.62 4.06 5.89 5.28 11.2 11 16.4 16.9 0.481 0.553 0.963 1.11 1.46 1.68 1.44 1.67 2.84 3.37 4.23 5.07 1.24 1.51 1.24 1.51 2.51 3.05 2.37 4.22 2.39 6.43 1.8 11.2-1.49 0.99-1.49 0.99-3 2 0.33-1.65 0.66-3.3 1-5h-3c-0.124 0.619-0.247 1.24-0.375 1.88-0.625 2.12-0.625 2.12-2.62 4.12-5.24-0.258-8.66-0.881-13-4v2h-2v-2h-3c0.309 1.11 0.309 1.11 0.625 2.25 0.419 3.07-0.00551 4.18-1.62 6.75v-2c-1.65-0.66-3.3-1.32-5-2v-2h-2c-0.0825-0.619-0.165-1.24-0.25-1.88-0.247-0.701-0.495-1.4-0.75-2.12-0.587-0.277-1.17-0.554-1.78-0.84-2.86-1.49-4.43-3.41-6.54-5.85-0.797-0.901-1.59-1.8-2.41-2.73-0.75-0.852-1.5-1.7-2.27-2.58-17.2-19.5-45.2-32.9-70-39-1.33-0.369-2.65-0.743-3.98-1.12-5.79-1.63-11-2.98-17-2.88-0.99-0.33-1.98-0.66-3-1-1.99 0-3.98 0.00123-5.96 0.0625-2.04-0.0625-2.04-0.0625-3.84-0.555-3.12-0.723-6.12-0.639-9.32-0.633-1.24-0.00258-2.48-0.00516-3.76-0.00781-3.02-0.0839-3.02-0.0839-5.12 1.13-1.5 0.0202-3-0.00794-4.5-0.0625-5.42-0.0386-10.2 0.802-15.5 2.06-1.17 0.268-2.35 0.536-3.55 0.812-26.8 6.27-51.5 17-72.2 35.4-2.26 1.84-2.26 1.84-4.26 1.84-0.33 0.99-0.66 1.98-1 3-1.46 1.37-1.46 1.37-3.38 2.88-3.86 3.27-7.12 6.83-10.4 10.7-0.459 0.542-0.919 1.08-1.39 1.64-10.2 12.2-18.8 27.1-24.9 41.8-0.251 0.61-0.502 1.22-0.76 1.85-9.07 22.3-18.1 55.7-10.2 79.2 0.128 1.77 0.229 3.54 0.312 5.31 0.558 7.24 2.53 13.8 4.69 20.7 0.431 1.56 0.431 1.56 0.871 3.14 7.35 26 21.7 47.5 40.1 66.9 0.758 0.799 1.52 1.6 2.3 2.42 3.38 3.48 6.45 6.19 10.7 8.58v2c0.568 0.269 1.14 0.539 1.72 0.816 2.37 1.23 4.53 2.63 6.74 4.13 38.2 25.4 82 35.4 127 26.5 17.9-3.85 34.1-10.6 50.4-18.6 4.1-1.89 7.34-2.23 11.8-1.84 4.26 2.09 7.13 4.59 9.29 8.88 1.48 4.43 1.65 8.55 0.707 13.1-7.41 14.4-31.8 21.4-46.1 26-6.25 1.86-12.6 3.5-18.9 5-0.787 0.191-1.57 0.381-2.39 0.578-4.49 1.05-8.81 1.72-13.4 1.98-4.04 0.18-4.04 0.18-7.98 0.945-2.84 0.634-5.49 0.623-8.4 0.626-1.79 0.00193-1.79 0.00193-3.61 0.00391-1.24-0.00387-2.48-0.00773-3.76-0.0117-1.24 0.00387-2.49 0.00773-3.77 0.0117-1.79-0.00193-1.79-0.00193-3.61-0.00391-1.09-0.00113-2.18-0.00226-3.3-0.00342-2.76-0.129-2.76-0.129-5.76-1.13-1.69-0.0197-3.38 0.00668-5.06 0.0625-18.1 0.0941-40-6.87-55.9-15.1-1.26-0.623-2.52-1.24-3.79-1.86-14.4-7.08-27.6-14.8-40.3-24.7-1.38-1.06-2.78-2.09-4.19-3.12-0.733-0.531-1.47-1.06-2.22-1.61-1.01-0.721-1.01-0.721-2.04-1.46-0.489-0.429-0.978-0.859-1.48-1.3v-2c-0.541-0.217-1.08-0.433-1.64-0.656-3.18-1.81-5.57-4.26-8.11-6.84-0.507-0.499-1.01-0.998-1.54-1.51-3.71-3.73-3.71-3.73-3.71-5.99-0.99-0.33-1.98-0.66-3-1-4-4.46-4-4.46-4-7h-2c-6.22-7.29-11.2-15.7-16-24-0.357-0.605-0.714-1.21-1.08-1.83-13.8-23.7-20.7-50.2-23.8-77.3-0.809-6.59-2.26-11.9-7.7-16.2-10.6-7.73-22.7-12.2-35.4-14.9-3-0.691-3-0.691-4-1.69-0.378-7.55-0.435-17.1 3-24 0.2-3.54 0.319-7.07 0.426-10.6 0.68-4.01 1.52-4.82 4.57-7.38 2.61-1.27 2.61-1.27 5.6-2.38 1.12-0.422 2.24-0.844 3.39-1.28 1.8-0.667 1.8-0.667 3.64-1.35 2.53-0.965 5.05-1.94 7.58-2.93 0.644-0.251 1.29-0.501 1.95-0.759 6.81-2.67 13.5-5.52 20.2-8.5 1.08-0.462 2.16-0.924 3.27-1.4 6.69-3.04 10.7-6.04 14.4-12.4 0.363-0.615 0.726-1.23 1.1-1.86 1.04-1.84 2.04-3.7 3.02-5.57 12.3-22.4 28.9-41.7 48.9-57.6 0.67-0.561 1.34-1.12 2.03-1.7 70-57.4 175-53.3 244 3.7z" fill="#050609"/>
<path transform="translate(1156,493)" d="m0 0c1.67 1.67 3.33 3.33 5 5 1.12 1.05 1.12 1.05 2.25 2.11 9.9 9.43 17.8 20.5 25 32 0.414 0.659 0.829 1.32 1.26 2 1.96 3.17 3.75 6.34 5.33 9.71 4.54 9.52 10.1 13.2 19.5 17.1 3.1 1.29 6.15 2.68 9.21 4.08 15.8 7.21 15.8 7.21 32.1 13.1 2.31 0.965 2.31 0.965 4.31 3.96 0.435 2.07 0.779 4.16 1.07 6.25 0.174 1.25 0.348 2.5 0.527 3.79 0.174 1.31 0.348 2.62 0.527 3.96 0.273 1.92 0.273 1.92 0.551 3.87 1.01 7.43 1.59 14.6 1.32 22.1-1.31 0.346-1.31 0.346-2.64 0.699-14.5 3.97-33.4 9.32-42.4 22.3-0.847 2.98-0.847 2.98-1 6.25-1.82 17.2-5.14 34.4-11 50.8-0.567 1.63-0.567 1.63-1.14 3.29-3.25 8.92-7.42 17.3-11.9 25.7-0.544 1.03-1.09 2.06-1.65 3.12-7.9 14.2-18.5 26.8-29.4 38.9-1.07 1.19-1.07 1.19-2.16 2.41-6.51 6.89-14.2 12.4-21.8 18-1.35 1.01-2.68 2.03-4.01 3.07-5.22 4.06-10.7 7.29-16.6 10.4-0.974 0.524-1.95 1.05-2.95 1.59-46.3 24.6-100 29.2-150 14.5-7.96-2.48-15.6-5.56-23.2-9-0.749-0.337-1.5-0.674-2.27-1.02-19.1-8.71-19.1-8.71-22.7-16-0.524-5.26-0.665-9.65 1.69-14.4 4.29-4.75 7.48-7.34 14-7.86 4.85 0.0676 8.46 1.8 12.7 3.98 0.691 0.34 1.38 0.679 2.09 1.03 2.98 1.47 5.95 2.97 8.88 4.54 6.36 3.35 12.7 5.5 19.7 7.37 1.09 0.299 2.18 0.598 3.3 0.907 45.5 12.2 90.1 5.1 131-18.3 11.8-7.28 23.3-16.4 31.9-27.2 0.807-0.802 1.61-1.6 2.45-2.43 2.72-2.73 5.1-5.63 7.43-8.7 0.435-0.571 0.87-1.14 1.32-1.73 16-21.2 25.5-45 29.8-71.1 0.226-1.24 0.451-2.48 0.684-3.75 4.22-26.1 0.704-53.3-7.68-78.2-0.225-0.673-0.449-1.35-0.681-2.04-6.15-17.8-16.7-35.1-29.3-49-6-6.8-6-6.8-6-9h-2v-2c-0.55-0.227-1.1-0.454-1.67-0.688-3.02-1.7-5.16-3.89-7.64-6.31-9.34-8.82-20-15.6-31.7-21-1.32-0.654-2.65-1.31-3.97-1.97-7.42-3.66-14.4-6.82-22.6-8.46-2.42-0.57-2.42-0.57-4.38-1.57-2.59-1.27-5-1.62-7.85-2.06-1.06-0.165-2.12-0.33-3.22-0.5-0.98-0.144-1.96-0.289-2.97-0.438-1.89-0.278-1.89-0.278-3.81-0.562-1.05-0.144-2.1-0.289-3.19-0.438-1.48-0.242-1.48-0.242-2.99-0.488-5.08-0.726-10.2-0.908-15.3-1.14-1-0.0516-2-0.103-3.03-0.156-0.955-0.0438-1.91-0.0877-2.89-0.133-0.867-0.0408-1.73-0.0815-2.63-0.124-2.19-0.115-2.19-0.115-4.14 1.04-1.56 0.0457-3.13 0.0383-4.69 0-8.47-0.0604-16.2 1.87-24.3 4-1.35 0.34-1.35 0.34-2.73 0.688-20.6 5.34-39.8 14-56.6 27.1-1.71 1.21-1.71 1.21-3.71 1.21-0.495 1.49-0.495 1.49-1 3-1.43 1.18-1.43 1.18-3.31 2.44-3.98 2.87-7.42 6.09-10.9 9.56-0.499 0.498-0.997 0.996-1.51 1.51-3.3 3.35-6.33 6.84-9.3 10.5-1.65 2.02-3.3 4.02-5 6h-1c-0.25-6.62-0.25-6.62 2-10h3c1.82-3.63 2.06-6.44 1.94-10.5 0.137-5.55 1.2-11.1 2.06-16.5h-6c-0.33-0.66-0.66-1.32-1-2-0.33 0.66-0.66 1.32-1 2h-3c-0.66-1.98-1.32-3.96-2-6 4.74-4.93 9.21-9.37 15-13 0.572-0.597 1.14-1.19 1.73-1.81 2.81-2.72 5.94-4.81 9.2-6.94 0.67-0.438 1.34-0.877 2.03-1.33 1.37-0.893 2.74-1.78 4.11-2.67 1.68-1.09 3.33-2.21 4.99-3.33 71.9-47.1 172-32.8 233 25.1z" fill="#020305"/>
<path transform="translate(640 886)" d="m0 0c0.761-0.00807 1.52-0.0161 2.31-0.0245 1.61-0.0138 3.22-0.0246 4.83-0.0324 2.45-0.0172 4.91-0.0611 7.36-0.105 1.57-0.0101 3.13-0.0186 4.7-0.0254 1.1-0.0263 1.1-0.0263 2.21-0.0531 3.58 0.0152 5.64 0.363 8.7 2.29 5.88 6.05 7.67 14.6 10 22.5 0.705 2.34 1.41 4.68 2.12 7.02 0.343 1.14 0.685 2.28 1.04 3.46 1.28 4.23 2.62 8.44 3.97 12.6 2.4 7.53 4.65 15.1 6.88 22.7 2.96 10.1 6.09 20.1 9.33 30.1 2.75 8.54 5.32 17.1 7.8 25.7 0.396 1.34 0.793 2.67 1.19 4.01 0.555 1.88 0.555 1.88 1.12 3.8 0.326 1.1 0.652 2.2 0.988 3.33 0.699 2.86 0.699 2.86 0.699 6.86-4.22 0.0495-8.43 0.0857-12.7 0.11-1.43 0.0101-2.87 0.0237-4.3 0.041-2.06 0.0243-4.13 0.0356-6.19 0.0444-1.24 0.0105-2.48 0.0209-3.76 0.0317-3.09-0.227-3.09-0.227-6.09-2.23-0.878-2.39-1.59-4.67-2.23-7.12-0.193-0.703-0.386-1.41-0.585-2.13-0.615-2.25-1.21-4.5-1.81-6.75-0.609-2.25-1.22-4.5-1.83-6.75-0.381-1.4-0.758-2.8-1.13-4.2-0.964-3.61-0.964-3.61-2.41-7.05-4.78-1.52-9.93-1.13-14.9-1.1-0.947 0.00141-1.89 0.00283-2.87 0.00429-3.02 0.00558-6.03 0.0181-9.05 0.0309-2.05 0.00502-4.1 0.00958-6.15 0.0137-5.01 0.011-10 0.0283-15 0.0488-0.252 1.03-0.504 2.06-0.763 3.12-1.97 8-4.03 15.9-6.42 23.8-0.26 0.873-0.519 1.75-0.787 2.65-1.9 6.29-1.9 6.29-3.03 7.42-2.22 0.0878-4.44 0.107-6.66 0.0977-0.997-0.00212-0.997-0.00212-2.01-0.00429-2.13-0.00561-4.26-0.0182-6.39-0.0309-1.44-0.00501-2.88-0.00958-4.32-0.0137-3.54-0.011-7.08-0.0283-10.6-0.0488-1.35-2.2-2.08-3.43-1.71-6.03 0.257-0.74 0.513-1.48 0.777-2.24 0.294-0.881 0.589-1.76 0.892-2.67 0.345-0.987 0.69-1.97 1.05-2.99 0.764-2.29 1.53-4.58 2.29-6.87 0.317-0.949 0.317-0.949 0.641-1.92 2.66-7.98 5.15-16 7.64-24 0.879-2.83 1.76-5.66 2.64-8.49 3.3-10.6 6.54-21.2 9.72-31.8 0.955-3.19 1.91-6.38 2.87-9.57 1.48-4.94 2.96-9.89 4.42-14.8 0.686-2.29 1.37-4.58 2.06-6.86 0.302-1.03 0.603-2.06 0.914-3.12 5.25-17.4 5.25-17.4 11.8-21.5 3.63-1.21 6.99-1.2 10.8-1.24z" fill="#020305"/>
<path transform="translate(686,485)" d="m0 0c1.69 1.65 3.36 3.31 5 5 1.53 1.36 3.08 2.72 4.62 4.06 5.89 5.28 11.2 11 16.4 16.9 0.481 0.553 0.963 1.11 1.46 1.68 1.44 1.67 2.84 3.37 4.23 5.07 1.24 1.51 1.24 1.51 2.51 3.05 2.37 4.22 2.39 6.43 1.8 11.2-1.49 0.99-1.49 0.99-3 2 0.33-1.65 0.66-3.3 1-5h-3c-0.124 0.619-0.247 1.24-0.375 1.88-0.625 2.12-0.625 2.12-2.62 4.12-5.24-0.258-8.66-0.881-13-4v2h-2v-2h-3c0.309 1.11 0.309 1.11 0.625 2.25 0.419 3.07-0.00551 4.18-1.62 6.75v-2c-1.65-0.66-3.3-1.32-5-2v-2h-2c-0.0825-0.619-0.165-1.24-0.25-1.88-0.247-0.701-0.495-1.4-0.75-2.12-0.587-0.277-1.17-0.554-1.78-0.84-2.86-1.49-4.43-3.41-6.54-5.85-0.797-0.901-1.59-1.8-2.41-2.73-0.75-0.852-1.5-1.7-2.27-2.58-17.2-19.5-45.2-32.9-70-39-1.33-0.369-2.65-0.743-3.98-1.12-5.79-1.63-11-2.98-17-2.88-0.99-0.33-1.98-0.66-3-1-1.99 0-3.98 0.00123-5.96 0.0625-2.04-0.0625-2.04-0.0625-3.84-0.555-3.12-0.723-6.12-0.639-9.32-0.633-1.24-0.00258-2.48-0.00516-3.76-0.00781-3.02-0.0839-3.02-0.0839-5.12 1.13-1.5 0.0202-3-0.00794-4.5-0.0625-5.42-0.0386-10.2 0.802-15.5 2.06-1.17 0.268-2.35 0.536-3.55 0.812-26.8 6.27-51.5 17-72.2 35.4-2.26 1.84-2.26 1.84-4.26 1.84-0.495 1.49-0.495 1.49-1 3-1.46 1.37-1.46 1.37-3.38 2.88-3.86 3.27-7.12 6.83-10.4 10.7-0.459 0.542-0.919 1.08-1.39 1.64-3.58 4.3-6.74 8.75-9.42 13.7-0.474 0.701-0.949 1.4-1.44 2.12h-3c-0.188-3.31-0.188-3.31 0-7 0.487-0.446 0.975-0.892 1.48-1.35 2.24-2.43 1.97-4.46 2.09-7.71 0.313-5.81 1.12-11.3 2.44-16.9-2.49-0.687-4.38-1-7-1-0.639-0.186-1.28-0.371-1.94-0.562-2.36-0.5-3.79-0.168-6.06 0.562-0.661-1.79-0.661-1.79-1-4 0.997-1.67 0.997-1.67 2.58-3.32 0.578-0.613 1.16-1.23 1.75-1.86 0.633-0.643 1.27-1.29 1.92-1.95 0.642-0.667 1.28-1.33 1.95-2.02 70.7-72.8 182-79.7 266-15.9z" fill="#050609"/>
<path transform="translate(1156,493)" d="m0 0c1.67 1.67 3.33 3.33 5 5 1.12 1.05 1.12 1.05 2.25 2.11 11.9 11.3 25 27 29.7 42.9-3.34-0.557-6.03-1.35-9-3v-2c-1.13-0.206-2.27-0.413-3.44-0.625-5.16-1.27-9.53-3.94-13.6-7.38v-2c-1.32-0.66-2.64-1.32-4-2v-2h-13c0.66 1.65 1.32 3.3 2 5-1.73 0.707-1.73 0.707-4 1-2.14-1.36-2.14-1.36-4.25-3.31-1.06-0.953-1.06-0.953-2.14-1.93-1.61-1.76-1.61-1.76-1.61-3.76h-2v-2c-0.55-0.227-1.1-0.454-1.67-0.688-3.02-1.7-5.16-3.89-7.64-6.31-9.34-8.82-20-15.6-31.7-21-1.32-0.654-2.65-1.31-3.97-1.97-7.42-3.66-14.4-6.82-22.6-8.46-2.42-0.57-2.42-0.57-4.38-1.57-2.59-1.27-5-1.62-7.85-2.06-1.06-0.165-2.12-0.33-3.22-0.5-0.98-0.144-1.96-0.289-2.97-0.438-1.89-0.278-1.89-0.278-3.81-0.562-1.05-0.144-2.1-0.289-3.19-0.438-1.48-0.242-1.48-0.242-2.99-0.488-5.08-0.726-10.2-0.908-15.3-1.14-1-0.0516-2-0.103-3.03-0.156-0.955-0.0438-1.91-0.0877-2.89-0.133-0.867-0.0408-1.73-0.0815-2.63-0.124-2.19-0.115-2.19-0.115-4.14 1.04-1.56 0.0457-3.13 0.0383-4.69 0-8.47-0.0604-16.2 1.87-24.3 4-1.35 0.34-1.35 0.34-2.73 0.688-20.6 5.34-39.8 14-56.6 27.1-1.71 1.21-1.71 1.21-3.71 1.21-0.495 1.49-0.495 1.49-1 3-1.43 1.18-1.43 1.18-3.31 2.44-3.98 2.87-7.42 6.09-10.9 9.56-0.499 0.498-0.997 0.996-1.51 1.51-3.3 3.35-6.33 6.84-9.3 10.5-1.65 2.02-3.3 4.02-5 6h-1c-0.25-6.62-0.25-6.62 2-10h3c1.82-3.63 2.06-6.44 1.94-10.5 0.137-5.55 1.2-11.1 2.06-16.5h-6c-0.33-0.66-0.66-1.32-1-2-0.33 0.66-0.66 1.32-1 2h-3c-0.66-1.98-1.32-3.96-2-6 4.74-4.93 9.21-9.37 15-13 0.572-0.597 1.14-1.19 1.73-1.81 2.81-2.72 5.94-4.81 9.2-6.94 0.67-0.438 1.34-0.877 2.03-1.33 1.37-0.893 2.74-1.78 4.11-2.67 1.68-1.09 3.33-2.21 4.99-3.33 71.9-47.1 172-32.8 233 25.1z" fill="#050609"/>
<path transform="translate(369 884)" d="m0 0c0.942 0.0699 1.88 0.14 2.86 0.212 6.59 0.579 13.1 1.59 19.3 3.98 3.1 6.2 0.987 16.3 0 23-1 1-1 1-2.75 1.11-0.764-0.00825-1.53-0.0165-2.32-0.025-0.865-0.00653-1.73-0.0131-2.62-0.0198-0.945-0.0114-1.89-0.0229-2.86-0.0347-2-0.0127-3.99-0.025-5.99-0.0371-3.15-0.0247-6.3-0.0524-9.45-0.0862-3.04-0.0305-6.08-0.0481-9.12-0.0642-1.39-0.0202-1.39-0.0202-2.8-0.0408-8.83-0.0333-18.1 0.235-25.1 6.2-7.76 7.87-9.31 18-9.3 28.6-0.00643 1.19-0.00643 1.19-0.013 2.4-0.0057 1.67-0.00627 3.34-0.00191 5 0.00314 2.5-0.0203 4.99-0.0457 7.49-0.276 20.6-0.276 20.6 8.94 38.2 6.63 4.74 14.6 4.17 22.4 3.32 4.1-0.75 8.02-1.78 12-3 1.33-0.338 2.67-0.673 4-1-0.00444-0.634-0.00888-1.27-0.0135-1.92-0.0441-6.59-0.0744-13.2-0.0964-19.8-0.0101-2.46-0.0237-4.92-0.041-7.38-0.0242-3.53-0.0356-7.06-0.0444-10.6-0.0103-1.11-0.0206-2.21-0.0313-3.35-1.51e-4 -1.02-3.02e-4 -2.04-4.58e-4 -3.09-0.00444-0.902-0.00888-1.8-0.0135-2.73 0.241-2.18 0.241-2.18 2.24-4.18 2.78-0.243 2.78-0.243 6.29-0.23 1.25 0.00193 2.5 0.00387 3.79 0.00586 1.97 0.0184 1.97 0.0184 3.98 0.0371 1.98 9.67e-4 1.98 9.67e-4 3.99 0.00195 9.8 0.0455 9.8 0.0455 10.9 1.19 0.0951 2.59 0.126 5.15 0.114 7.73 1.46e-4 0.81 2.92e-4 1.62 4.43e-4 2.45-6.99e-4 2.69-0.00849 5.38-0.0163 8.07-0.00186 1.86-0.00329 3.72-0.00429 5.58-0.00383 4.9-0.0137 9.81-0.0247 14.7-0.0102 5-0.0148 10-0.0198 15-0.0107 9.82-0.0278 19.6-0.0488 29.5-2.69 0.0544-5.37 0.0939-8.06 0.125-0.752 0.0168-1.5 0.0335-2.28 0.0508-4.95 0.0429-8.98-0.533-13.7-2.18-2.05-2.05-1.7-6.3-2-9-3.35 1.23-5.98 2.6-8.81 4.75-13.4 8.98-27.5 11.2-43.3 8.77-6.1-1.58-11.9-4.7-16.9-8.52v-2c-0.588-0.227-1.18-0.454-1.78-0.688-6.87-4.06-11.1-14.9-13.2-22.3-5.04-22.3-5.52-45.4-2-68 0.171-1.13 0.343-2.27 0.52-3.44 2.22-11.7 7.67-25.3 17.5-32.6 0.58-0.442 1.16-0.884 1.76-1.34 18.7-12.9 42.5-11.5 64.1-9.85z" fill="#020305"/>
<path transform="translate(807 884)" d="m0 0c2.78 0.0236 5.56 0.0205 8.35 0.0139 13.1 0.0206 26.2 0.301 38.6 5.32 1.64 3.29 0.862 6.86 0.625 10.4-0.0438 0.777-0.0877 1.55-0.133 2.35-0.202 3.26-0.456 6.1-1.49 9.21-0.659-0.00444-1.32-0.00888-2-0.0135-6.88-0.0444-13.8-0.0745-20.6-0.0964-2.56-0.01-5.13-0.0237-7.69-0.041-3.69-0.0244-7.39-0.0356-11.1-0.0444-1.14-0.0103-2.28-0.0206-3.45-0.0313-6.08-8.5e-4 -11.3 0.437-17.1 2.23-2.42 7.6-2.42 7.6-2.5 15.4 5.4 9.22 15.1 11.7 24.9 14.4 29.3 8.14 29.3 8.14 38.6 19.2 0.525 0.585 1.05 1.17 1.59 1.77 6.67 8.24 6.91 18.6 6.85 28.7 0.02 1.16 0.04 2.32 0.0605 3.51-0.00574 10.2-2.18 18.7-9.35 26.2-13 11-29.7 11.1-45.8 11.1-1.31 0.00564-2.61 0.0113-3.96 0.0171-8.3-0.0619-16.2-0.888-24.4-2.33-1.28-0.174-2.55-0.348-3.87-0.527-5.86-0.8-10.8-1.77-16.1-4.47-0.32-17-0.32-17 3-22 2.27-0.347 2.27-0.347 5.15-0.309 1.08 0.00668 2.15 0.0134 3.26 0.0202 1.17 0.0218 2.34 0.0435 3.54 0.0659 1.8 0.0135 1.8 0.0135 3.63 0.0272 3.85 0.0301 7.7 0.0799 11.5 0.133 3.83 0.0479 7.65 0.0913 11.5 0.122 2.38 0.0197 4.77 0.0492 7.15 0.0899 10 0.209 10 0.209 19.2-3.47 2.73-4.35 2.35-10.2 1.36-15.1-2.74-5.49-6.74-7.55-12.3-9.62-0.664-0.256-1.33-0.513-2.01-0.777-5-1.91-10.1-3.64-15.2-5.3-15.2-4.95-29.9-10.2-37.8-24.9-0.623-1.15-0.623-1.15-1.26-2.32-4.73-10.6-4.43-24.6-0.992-35.6 3.62-8.99 9.04-15.2 17.9-19.2 10.6-4.35 21.2-4.41 32.5-4.31z" fill="#020305"/>
<path transform="translate(1296 885)" d="m0 0c0.747 0.114 1.49 0.228 2.26 0.345 4.39 0.765 7.98 2.1 11.9 4.28 0.0556 1.62 0.0935 3.25 0.125 4.88 0.0232 0.905 0.0464 1.81 0.0703 2.74-0.173 2.99-0.603 5.67-1.21 8.59-0.276 1.35-0.276 1.35-0.557 2.72-0.142 0.683-0.284 1.37-0.431 2.07-0.627-0.00444-1.25-0.00888-1.9-0.0135-6.57-0.0445-13.1-0.0745-19.7-0.0964-2.45-0.01-4.89-0.0236-7.34-0.041-3.53-0.0245-7.06-0.0357-10.6-0.0444-1.62-0.0155-1.62-0.0155-3.27-0.0313-6.93-0.00101-13.4 0.745-20.2 2.23-2.86 7.16-2.86 13.9 0 21 7.02 4.34 16 6.37 23.8 8.89 33.2 10.7 33.2 10.7 40.5 22.4 4.15 8.56 5.17 16.7 5.06 26.1 0.0116 1.06 0.0232 2.11 0.0352 3.2-0.0344 9.31-1.13 19.1-7.41 26.4-9.41 8.51-21.1 11.3-33.6 11.3-0.789 0.00546-1.58 0.0109-2.39 0.0166-2.54 0.0115-5.07 0.00529-7.61-0.00484-0.864-8.26e-4 -1.73-0.00165-2.62-0.0025-42.6-0.0938-42.6-0.0938-48.8-6.31-0.128-2.41-0.185-4.78-0.188-7.19-0.0142-1.31-0.0284-2.63-0.043-3.98 0.486-8.09 0.486-8.09 3.23-10.8 1.88-0.0973 3.76-0.125 5.63-0.126 1.21-0.00381 2.41-0.00761 3.65-0.0115 1.97-0.00154 1.97-0.00154 3.98-0.00311 2.05-0.0119 4.1-0.0273 6.15-0.0427 5.07-0.038 10.1-0.0693 15.2-0.0672 3.52 7.88e-4 7.04-0.0226 10.6-0.0619 1.99-0.0155 3.98-0.00512 5.98 0.00567 7.15 0.192 7.15 0.192 13.2-3.06 3.01-4.73 2.5-9.25 1.68-14.6-0.939-3.29-2.25-4.96-5-7-7.26-3.73-15.1-6.04-22.8-8.55-32-10.4-32-10.4-40.2-25.3-5.1-11.6-5.38-25-2-37.1 4.83-12 11.4-16.9 23-22 2.69-1.06 5.14-1.65 8-2 1.4-0.18 1.4-0.18 2.83-0.363 16.8-1.59 34.4-0.831 51 1.74z" fill="#020305"/>
<path transform="translate(950 884)" d="m0 0c0.923-0.00429 1.85-0.00857 2.8-0.013 1.95-0.00572 3.9-0.00626 5.84-0.00191 2.92 0.00313 5.84-0.0202 8.75-0.0457 9.08-0.0315 18 0.24 26.9 1.69 0.729 0.116 1.46 0.233 2.21 0.353 4.1 0.751 7.36 1.77 10.7 4.32 0.559 2.6 0.559 2.6 0.438 5.62-0.0329 1.47-0.0329 1.47-0.0664 2.98-0.306 2.8-0.771 5.37-1.39 8.11-0.182 0.805-0.365 1.61-0.552 2.44-0.14 0.61-0.28 1.22-0.424 1.85-0.644-0.00666-1.29-0.0133-1.95-0.0202-6.73-0.0666-13.5-0.112-20.2-0.145-2.51-0.015-5.02-0.0355-7.53-0.0615-3.62-0.0366-7.23-0.0535-10.9-0.0667-1.11-0.0155-2.23-0.031-3.37-0.0469-6.41-0.00137-12.3 0.41-18.1 3.34-3.08 4.07-2.48 10.1-2 15 1.02 3.26 2.1 4.47 5.03 6.19 6.03 3.04 12 5.27 18.5 7.19 7.25 2.23 14.4 4.58 21.5 7.31 1.08 0.41 1.08 0.41 2.19 0.828 4.35 1.71 8.09 3.63 11.8 6.48v2h2c1.66 2.23 1.66 2.23 3.5 5.19 0.608 0.963 1.22 1.93 1.84 2.92 6.69 11.7 6.69 29.4 3.47 42.3-3.11 9.02-7.58 14.3-15.9 18.7-17.1 7.53-39.8 5.39-57.9 3.57-1.28-0.118-2.56-0.236-3.88-0.357-7.95-0.79-15.5-2.14-23.2-4.33-0.0289-3.46-0.0468-6.92-0.0625-10.4-0.00838-0.985-0.0168-1.97-0.0254-2.98-0.00322-0.941-0.00645-1.88-0.00977-2.85-0.00524-0.869-0.0105-1.74-0.0159-2.63 0.114-2.15 0.114-2.15 1.11-4.15 0.671 0.00444 1.34 0.00888 2.03 0.0135 7.01 0.0444 14 0.0745 21 0.0964 2.61 0.01 5.23 0.0237 7.84 0.041 3.76 0.0244 7.53 0.0356 11.3 0.0444 1.74 0.0155 1.74 0.0155 3.52 0.0313 7.2 9.88e-4 15.1-0.00989 21.3-4.23 1.92-5.77 1.91-11.8-0.438-17.4-5.53-5.53-14-7.53-21.3-10-1.76-0.611-3.53-1.22-5.29-1.84-0.849-0.295-1.7-0.59-2.57-0.894-30.4-10.6-30.4-10.6-37-24.2-1.26-3.2-2.38-6.38-3.37-9.67-0.201-0.645-0.402-1.29-0.609-1.95-2.11-11-0.753-24.7 4.86-34.5 8.72-12.3 23.1-15.9 37.5-15.9z" fill="#020305"/>
<path transform="translate(1095 885)" d="m0 0c0.859-0.00315 1.72-0.0063 2.6-0.00955 1.39 0.00304 1.39 0.00304 2.81 0.00613 0.97-9.57e-4 1.94-0.00191 2.94-0.0029 2.06-6.81e-4 4.12 0.00117 6.19 0.00534 3.09 0.00526 6.17 9.76e-5 9.26-0.00635 9.49-0.00439 19 0.0854 28.4 0.52 0.764 0.0304 1.53 0.0607 2.31 0.092 4.33 0.231 8.02 0.955 12.1 2.53 0.0273 2.33 0.047 4.67 0.0625 7 0.0116 1.3 0.0232 2.6 0.0352 3.94 0.0363 4.07-0.567 8.04-1.1 12.1-1.03 0.00547-1.03 0.00547-2.09 0.011-7.17 0.0418-14.3 0.111-21.5 0.196-2.68 0.0304-5.35 0.0494-8.03 0.0635-3.85 0.0214-7.69 0.0681-11.5 0.12-1.19 0.00123-2.39 0.00246-3.62 0.00372-8.42 0.137-8.42 0.137-15.2 4.61-1.96 3.14-2.24 5.53-2.2 9.2 0.00967 1.47 0.00967 1.47 0.0195 2.97 0.0168 1.02 0.0335 2.03 0.0508 3.08 0.00902 1.03 0.018 2.06 0.0273 3.12 0.0235 2.54 0.0564 5.08 0.0977 7.62 0.687 0.0103 1.37 0.0206 2.08 0.0312 7.12 0.108 14.2 0.222 21.4 0.341 2.66 0.0434 5.32 0.0851 7.98 0.125 3.82 0.0575 7.63 0.121 11.4 0.186 1.2 0.0167 2.4 0.0334 3.63 0.0506 1.1 0.0199 2.2 0.0399 3.34 0.0604 1.46 0.0233 1.46 0.0233 2.95 0.0471 2.21 0.158 2.21 0.158 3.21 1.16 0.0871 1.71 0.107 3.42 0.0977 5.13-0.00483 1.55-0.00483 1.55-0.00977 3.13-0.0126 1.63-0.0126 1.63-0.0254 3.3-0.00451 1.09-0.00902 2.18-0.0137 3.31-0.0118 2.71-0.0283 5.42-0.0488 8.13-0.613-0.00444-1.23-0.00888-1.86-0.0135-6.39-0.0443-12.8-0.0744-19.2-0.0964-2.38-0.01-4.77-0.0237-7.15-0.041-3.43-0.0243-6.86-0.0356-10.3-0.0444-1.59-0.0155-1.59-0.0155-3.22-0.0313-5.17-7.8e-4 -9.47 0.134-14.3 2.23-0.0872 4.56-0.14 9.12-0.188 13.7-0.0251 1.29-0.0503 2.59-0.0762 3.92-0.0145 1.87-0.0145 1.87-0.0293 3.78-0.0236 1.72-0.0236 1.72-0.0476 3.48 0.379 3.49 1.25 5.34 3.34 8.14 2.62 1.31 4.6 1.15 7.54 1.19 1.74 0.0251 1.74 0.0251 3.51 0.0507 1.26 0.0136 2.51 0.0272 3.8 0.0411 1.96 0.0281 3.92 0.0562 5.88 0.0847 4.15 0.0586 8.29 0.109 12.4 0.16 3.41 0.0427 6.83 0.0873 10.2 0.137 2.56 0.0368 5.13 0.0692 7.69 0.0969 1.73 0.0251 1.73 0.0251 3.5 0.0507 1.02 0.0125 2.04 0.0251 3.1 0.038 2.31 0.151 2.31 0.151 3.31 1.15 1.4 7.91 1.08 16 1 24-13.7 1.12-27.3 1.29-41 1.35-2.84 0.0134-5.69 0.0414-8.53 0.082-3.48 0.0496-6.96 0.0741-10.4 0.0812-1.94 0.00984-3.87 0.044-5.81 0.0788-10.9-0.0259-19.3-3.43-27.2-11.1-8.18-9.8-6.64-24.6-6.57-36.6-1.55e-4 -2.02-0.00165-4.05-0.00441-6.07-0.00138-4.22 0.0111-8.43 0.034-12.6 0.0285-5.39 0.0256-10.8 0.0129-16.2-0.00697-4.17 8.51e-4 -8.34 0.0133-12.5 0.00449-1.99 0.00487-3.97 9.35e-4 -5.96-0.00293-2.78 0.0137-5.55 0.0354-8.33-0.0045-0.807-9e-3 -1.61-0.0136-2.45 0.125-9.67 3.41-16.8 9.42-24.3 6.54-5.45 14.7-9.62 23.4-9.63z" fill="#020305"/>
<path transform="translate(411,511)" d="m0 0 2 1v2h3c0.33-0.99 0.66-1.98 1-3v2c1.32 0.33 2.64 0.66 4 1 0.33-0.99 0.66-1.98 1-3v2c1.98 0.66 3.96 1.32 6 2 0.125 6.62 0.125 6.62-1 10-0.231 3.32-0.381 6.64-0.523 9.97-0.522 3.32-1.06 3.9-3.48 6.03-0.73 3.61-0.73 3.61-1 7 0.66 0.33 1.32 0.66 2 1-0.568 0.969-1.14 1.94-1.72 2.94-8.37 14.4-14.8 29-19.3 45.1-0.224 0.794-0.449 1.59-0.68 2.41-0.548 2.19-0.955 4.36-1.32 6.59-0.184 1.09-0.369 2.18-0.559 3.3-1.38 9.64-1.62 19.2-1.63 28.9-8.06e-4 1.27-0.00161 2.53-0.00244 3.83 0.0329 5.46 0.179 10.6 1.19 16-2 1-2 1-5.25 1.06-4.63 1.16-5.99 2.69-8.6 6.55-1.95 4.03-2.02 7.97-2.15 12.4-0.482 3.73-0.984 7.37-2 11h-2c-0.33 0.66-0.66 1.32-1 2-0.33-1.98-0.66-3.96-1-6-0.66 2.97-1.32 5.94-2 9h-2c-3.29-12.7-5.85-25.3-7.57-38.3-1-7.24-2.02-13.3-8.06-18.1-10.6-7.73-22.7-12.2-35.4-14.9-3-0.691-3-0.691-4-1.69-0.378-7.55-0.435-17.1 3-24 0.2-3.54 0.319-7.07 0.426-10.6 0.68-4.01 1.52-4.82 4.57-7.38 2.61-1.27 2.61-1.27 5.6-2.38 1.68-0.633 1.68-0.633 3.39-1.28 1.2-0.444 2.4-0.889 3.64-1.35 2.53-0.965 5.05-1.94 7.58-2.93 0.644-0.251 1.29-0.501 1.95-0.759 6.81-2.67 13.5-5.52 20.2-8.5 1.08-0.462 2.16-0.924 3.27-1.4 6.69-3.04 10.7-6.04 14.4-12.4 0.363-0.615 0.726-1.23 1.1-1.86 1.04-1.84 2.04-3.7 3.02-5.57 5.7-10.5 12.7-20.1 19.9-29.6z" fill="#020305"/>
<path transform="translate(464 886)" d="m0 0c1.01 0.00326 1.01 0.00326 2.04 0.00659 2.06 0.00316 4.12-0.0203 6.18-0.0457 1.29-6.45e-4 2.59-0.00129 3.92-0.00195 1.19-0.00298 2.38-0.00596 3.61-0.00903 0.943 0.123 1.89 0.246 2.86 0.372 2.03 3.05 2.25 3.6 2.23 7.01 0.0013 0.814 0.00261 1.63 0.00395 2.47-0.00876 0.89-0.0175 1.78-0.0266 2.7-0.00131 0.94-0.00263 1.88-0.00398 2.85-0.00651 3.12-0.027 6.23-0.047 9.35-0.00627 2.17-0.0115 4.34-0.0158 6.51-0.0133 5.72-0.0378 11.4-0.0654 17.2-0.043 9.13-0.0729 18.3-0.096 27.4-0.0102 3.18-0.0272 6.37-0.045 9.55-0.00684 1.97-0.0134 3.94-0.0198 5.91-0.0101 1.31-0.0101 1.31-0.0204 2.65-0.314 10.7-0.314 10.7 2.9 20.5 4.99 2.98 9.76 2.62 15.5 2.59 1.19 0.0127 2.38 0.0255 3.6 0.0386 3.79 0.0363 7.59 0.039 11.4 0.0395 3.81 0.0216 7.62 0.05 11.4 0.0823 2.37 0.0178 4.74 0.0281 7.11 0.0302 1.06 0.00381 2.13 0.00761 3.23 0.0115 1.41 6.95e-4 1.41 6.95e-4 2.85 0.0014 2.14 0.125 2.14 0.125 3.14 1.12 0.0874 1.85 0.107 3.71 0.0977 5.57-0.00483 1.69-0.00483 1.69-0.00977 3.41l-0.0254 3.59c-0.00451 1.19-0.00902 2.38-0.0137 3.6-0.0118 2.95-0.0292 5.89-0.0488 8.84-8.61 0.852-17.1 1.17-25.8 1.2-1.27 0.0057-2.55 0.0114-3.86 0.0173-2.67 0.00938-5.34 0.0163-8.02 0.0198-3.4 0.00552-6.81 0.0297-10.2 0.058-3.28 0.0232-6.57 0.0251-9.85 0.0299-1.21 0.0123-2.42 0.0247-3.67 0.0374-10.9-0.0286-17.4-2.33-25.4-9.89-7.37-8.26-7.36-18.2-7.35-28.7-0.00336-1.12-0.00672-2.24-0.0102-3.39-0.00948-3.69-0.0115-7.38-0.0125-11.1-0.00321-2.56-0.00658-5.13-0.0101-7.69-0.00598-5.37-0.00788-10.7-0.00725-16.1 6.02e-4 -6.21-0.00999-12.4-0.0257-18.6-0.0146-5.98-0.0182-12-0.0176-17.9-0.00118-2.54-0.00563-5.09-0.0133-7.63-0.00974-3.55-0.00695-7.09-8.95e-4 -10.6-0.00562-1.06-0.0112-2.12-0.017-3.21 0.00419-0.962 0.00839-1.92 0.0127-2.91-5.45e-4 -0.838-0.00109-1.68-0.00165-2.54 0.753-6.13 8.02-4.32 12.6-4.35z" fill="#020305"/>
<path transform="translate(832,644)" d="m0 0c0.99 0.66 1.98 1.32 3 2v2h2c0.33-1.32 0.66-2.64 1-4 0.66 1.32 1.32 2.64 2 4h4c0.351 1.03 0.701 2.06 1.06 3.12 1.33 3.24 2.8 4.72 5.62 6.75 2.2 1.73 3.18 2.53 3.8 5.29 0.0171 3.41-0.419 6.5-1.11 9.84-0.531 4.24 0.525 7.91 1.62 12h2v2h3v9c-1.49 0.495-1.49 0.495-3 1-0.733 2.02-0.733 2.02-1 4 1.32 0.33 2.64 0.66 4 1 0.495 6.93 0.495 6.93 1 14 6.51 2.77 6.51 2.77 13 1.69 0.66-0.557 1.32-1.11 2-1.69h2c0.66-0.66 1.32-1.32 2-2v2c0.99 0.33 1.98 0.66 3 1 1.79-17-0.773-32.5-6.25-48.7-0.825-3.64-0.638-4.29 1.25-7.31 0.315-2.3 0.438-4.56 0.559-6.88 0.532-2.56 1.47-3.47 3.44-5.12v3c3.07-0.776 3.07-0.776 5-3v3h4c0.33-1.32 0.66-2.64 1-4 2.64-0.33 5.28-0.66 8-1 0.33-0.99 0.66-1.98 1-3 6.61 12.7 11.2 24.9 14 39 0.245 1.13 0.49 2.25 0.742 3.41 3.83 20.3 3.09 50.6-8.54 68.3-0.645 0.704-1.29 1.41-1.95 2.13-0.951 1.08-0.951 1.08-1.92 2.18-5.26 4.39-10.7 5.45-17.4 5.38-0.681 0.02-1.36 0.04-2.06 0.0605-6.37-0.00612-9.74-2.47-14.2-6.72-5.04-5.6-9.03-11.2-12.7-17.8-0.717-1.26-1.44-2.51-2.16-3.77-2.32-4.06-4.59-8.14-6.84-12.2-0.549-0.987-1.1-1.97-1.66-2.99-8.78-16.6-14.1-35.5-17.1-53.9-0.128-0.781-0.256-1.56-0.388-2.37-0.751-4.95-0.976-9.69-0.862-14.7 1.49 0.99 1.49 0.99 3 2 0.33-2.64 0.66-5.28 1-8z" fill="#020305"/>
<path transform="translate(1110 461)" d="m0 0c0.699 0.354 1.4 0.708 2.12 1.07 2.13 1.09 4.26 2.19 6.38 3.3 0.62 0.323 1.24 0.645 1.88 0.978 15.6 8.22 28.7 19.6 41.1 32 0.744 0.697 1.49 1.39 2.25 2.11 11.9 11.3 25 27 29.7 42.9-3.34-0.557-6.03-1.35-9-3v-2c-1.13-0.206-2.27-0.413-3.44-0.625-5.16-1.27-9.53-3.94-13.6-7.38v-2c-1.32-0.66-2.64-1.32-4-2v-2h-13c0.66 1.65 1.32 3.3 2 5-1.73 0.707-1.73 0.707-4 1-2.14-1.36-2.14-1.36-4.25-3.31-0.706-0.636-1.41-1.27-2.14-1.93-1.61-1.76-1.61-1.76-1.61-3.76h-2v-2c-0.55-0.227-1.1-0.454-1.67-0.688-3.02-1.7-5.16-3.89-7.64-6.31-9.34-8.82-20-15.6-31.7-21-1.32-0.654-2.65-1.31-3.97-1.97-7.42-3.66-14.4-6.82-22.6-8.46-2.42-0.57-2.42-0.57-4.38-1.57-2.59-1.27-5-1.62-7.85-2.06-1.06-0.165-2.12-0.33-3.22-0.5-0.98-0.144-1.96-0.289-2.97-0.438-1.26-0.186-2.52-0.371-3.81-0.562-1.05-0.144-2.1-0.289-3.19-0.438-2.33-0.333-4.67-0.667-7-1v-2c-1.32-0.33-2.64-0.66-4-1v-3h9c0.33-0.99 0.66-1.98 1-3 2.81-0.528 5.62-1.05 8.44-1.56 1.2-0.227 1.2-0.227 2.43-0.459 2.04-0.369 4.08-0.679 6.13-0.979 0.33 0.33 0.66 0.66 1 1 6.07 0.357 12 0.0631 18-1-0.66-0.33-1.32-0.66-2-1v-3c3.27-1.03 5.86-0.964 9.25-0.562 0.892 0.102 1.78 0.204 2.7 0.309 0.675 0.0838 1.35 0.168 2.05 0.254v-2c6.07-2.33 12.1 1.9 17.5 4.62z" fill="#050609"/>
<path transform="translate(821,605)" d="m0 0c0.33 0.66 0.66 1.32 1 2h9c0.66 1.65 1.32 3.3 2 5h2c0.66 2.31 1.32 4.62 2 7h4c2.14 5.21 2.17 9.45 2 15 3.96 0.33 7.92 0.66 12 1 0.0374-0.892 0.0748-1.78 0.113-2.7 0.0657-1.17 0.131-2.34 0.199-3.55 0.087-1.74 0.087-1.74 0.176-3.52 0.538-3.4 0.95-4.95 3.51-7.23h5v-12c13.3 3.07 21.3 15.6 29 26 0.73 0.959 1.46 1.92 2.21 2.91 3.31 4.48 5.13 7.46 5.79 13.1-3.38 0.845-5.67 1.11-9 0-0.33 1.65-0.66 3.3-1 5-0.743-0.351-1.49-0.701-2.25-1.06-2.94-1-3.91-0.918-6.75 0.0625h-2c-0.0735 0.87-0.0735 0.87-0.148 1.76-0.0748 0.781-0.15 1.56-0.227 2.37-0.0696 0.766-0.139 1.53-0.211 2.32-0.414 2.55-0.414 2.55-1.59 5.41-1.09 4.19-0.1 6.38 1.43 10.4 5.2 14.4 6.56 28.5 4.75 43.8-1.65-0.99-3.3-1.98-5-3v2c-3 1-3 1-6 1-0.99 0.66-1.98 1.32-3 2-3.67-0.314-6.31-1.49-9-4-1.41-4.63-1.8-9.17-2-14-0.99-0.33-1.98-0.66-3-1 0.375-1.94 0.375-1.94 1-4 0.66-0.33 1.32-0.66 2-1 0.467-2.13 0.467-2.13 0.625-4.56 0.0748-0.826 0.15-1.65 0.227-2.5 0.049-0.638 0.098-1.28 0.148-1.93h-3v-2h-2c-2.68-6.13-3.21-10.9-2.32-17.5 0.411-2.72 0.411-2.72 0.324-6.48-1.96-1.64-1.96-1.64-4-3v-2c-0.99-0.33-1.98-0.66-3-1-1.65-2.6-2-3.86-2-7h-4c-0.66-0.99-1.32-1.98-2-3-0.33 0.99-0.66 1.98-1 3h-2c-0.66-0.99-1.32-1.98-2-3-0.124 1.3-0.247 2.6-0.375 3.94-0.211 2.21-0.211 2.21-0.625 4.06-0.99 0.495-0.99 0.495-2 1-2.56-4.47-3.4-7.79-3.51-12.9-0.0532-1.93-0.0532-1.93-0.107-3.91-0.0231-1.35-0.0459-2.69-0.0684-4.04-0.0332-1.37-0.0677-2.74-0.104-4.11-0.0823-3.34-0.147-6.68-0.209-10-5.28-1.32-10.6-2.64-16-4 0.33-1.32 0.66-2.64 1-4h2c0.33-0.99 0.66-1.98 1-3 3-1.12 3-1.12 6-2l1-1z" fill="#050609"/>
<path transform="translate(660 777)" d="m0 0c4.17 3.61 6.3 6.7 7.3 12.1 0.357 5.06-0.0374 8.6-3.24 12.6-7.21 7.07-22.6 16.8-33.2 16.8v-2c-1.65 0.99-3.3 1.98-5 3v-3h-3v-2c-6.72-0.217-12.6 0.533-19.2 2-10.3 2.29-10.3 2.29-15.8 2v-2c-0.941 0.0232-1.88 0.0464-2.85 0.0703-1.87 0.0271-1.87 0.0271-3.77 0.0547-1.23 0.0232-2.46 0.0464-3.73 0.0703-3.63-0.194-6.23-1.04-9.65-2.2-8.33-0.589-16.7 0.0532-25 1v-2c-5.61-0.33-11.2-0.66-17-1v-2c-0.866-0.186-0.866-0.186-1.75-0.375-2.38-0.662-4.19-1.25-6.25-2.62-1.25-2.62-1.25-2.62-2-5h-4v-2h-2c0.33-0.66 0.66-1.32 1-2 1.65 0.33 3.3 0.66 5 1v-3c-1.32 0.33-2.64 0.66-4 1-0.33-0.66-0.66-1.32-1-2 0.33-0.66 0.66-1.32 1-2-1.32-0.33-2.64-0.66-4-1 0.33-0.66 0.66-1.32 1-2 0.546 0.166 1.09 0.332 1.65 0.503 47.3 14.2 90.8 7.84 135-13.7 5.26-2.42 9.75-2.87 15-0.282z" fill="#020305"/>
<path transform="translate(371 946)" d="m0 0c1.73 0.00616 1.73 0.00616 3.5 0.0125 1.25 0.00193 2.5 0.00387 3.79 0.00586 1.97 0.0184 1.97 0.0184 3.98 0.0371 1.32 6.45e-4 2.64 0.00129 3.99 0.00195 9.8 0.0455 9.8 0.0455 10.9 1.19 0.0951 2.59 0.126 5.15 0.114 7.73 1.46e-4 0.81 2.92e-4 1.62 4.43e-4 2.45-6.99e-4 2.69-0.00849 5.38-0.0163 8.07-0.00186 1.86-0.00329 3.72-0.00429 5.58-0.00383 4.9-0.0137 9.81-0.0247 14.7-0.0102 5-0.0148 10-0.0198 15-0.0107 9.82-0.0278 19.6-0.0488 29.5-2.69 0.0544-5.37 0.0939-8.06 0.125-0.752 0.0168-1.5 0.0335-2.28 0.0508-4.95 0.0429-8.98-0.533-13.7-2.18-1.86-1.86-1.46-4.5-1.72-6.99-0.248-2.21-0.248-2.21-1.28-5.01-0.66-0.33-1.32-0.66-2-1 0.495-0.99 0.495-0.99 1-2-1.32-0.33-2.64-0.66-4-1-0.295-5.02 0.0149-7.9 3-12h-2c-0.0506-7.37-0.0857-14.7-0.11-22.1-0.0101-2.51-0.0237-5.02-0.041-7.53-0.0242-3.6-0.0356-7.2-0.0444-10.8-0.0103-1.13-0.0206-2.25-0.0313-3.42-1.51e-4 -1.04-3.02e-4 -2.08-4.58e-4 -3.15-0.00444-0.919-0.00888-1.84-0.0135-2.79 0.384-3.53 1.59-4.16 5.02-4.46z" fill="#020305"/>
<path transform="translate(316,940)" d="m0 0 1 2c0.66 0.33 1.32 0.66 2 1-0.0157 0.916-0.0314 1.83-0.0476 2.78-0.0519 3.48-0.0891 6.96-0.117 10.4-0.0149 1.49-0.0351 2.98-0.0615 4.47-0.52 21-0.52 21 8.8 39 6.63 4.74 14.6 4.17 22.4 3.32 4.1-0.75 8.02-1.78 12-3 3.75-1.12 3.75-1.12 6 0-0.217 0.835-0.217 0.835-0.438 1.69-0.393 1.62-0.744 3.24-1.06 4.88-0.5 2.44-0.5 2.44-1.5 5.44 1.98 0.495 1.98 0.495 4 1 0.33 1.65 0.66 3.3 1 5-6.37 4.71-12.7 8.85-20 12-0.732 0.321-1.46 0.642-2.22 0.973-9.95 3.66-23.6 3.72-33.5 0.0859-4.28-2.01-8.5-4.19-12.3-7.06v-2c-0.872-0.331-0.872-0.331-1.76-0.668-2.94-1.75-4.21-3.77-6.05-6.64-0.625-0.945-1.25-1.89-1.89-2.86-1.29-2.82-1.29-2.82-0.293-7.82h13v-2h2c-0.0619-1.05-0.124-2.1-0.188-3.19 0.201-4.09 0.865-5.54 3.19-8.81 2.45-3.25 2.45-3.25 2.69-7.06-0.34-0.959-0.34-0.959-0.688-1.94v-4c-0.0748-1.54-0.16-3.09-0.254-4.63-0.0496-0.889-0.0993-1.78-0.15-2.7-0.104-1.84-0.213-3.68-0.328-5.52-0.332-6.16-0.0605-12 0.732-18.1h2v-5c0.66-0.33 1.32-0.66 2-1z" fill="#050609"/>
<path transform="translate(648,911)" d="m0 0c3.69 2.46 3.73 3.6 4.83 7.8 0.321 1.2 0.642 2.39 0.973 3.62 0.336 1.3 0.672 2.59 1.01 3.89 0.349 1.31 0.699 2.63 1.05 3.94 0.532 1.99 1.06 3.98 1.59 5.97 1.82 6.87 3.8 13.7 5.82 20.5 0.23 0.79 0.459 1.58 0.696 2.39 0.2 0.679 0.401 1.36 0.607 2.06 0.424 1.81 0.424 1.81 0.424 4.81 0.639 0.103 1.28 0.206 1.94 0.312 0.681 0.227 1.36 0.454 2.06 0.688 0.33 0.99 0.66 1.98 1 3l-2 1c-0.468 2.59-0.468 2.59-0.625 5.56-0.0748 1.01-0.15 2.02-0.227 3.07-0.049 0.782-0.098 1.56-0.148 2.37 1.32 0.66 2.64 1.32 4 2v2h4c0.66 2.31 1.32 4.62 2 7-0.66 0.66-1.32 1.32-2 2l-2-2c-2.18-0.292-2.18-0.292-4.73-0.227-0.981 1.51e-4 -1.96 3.02e-4 -2.97 4.58e-4 -1.06 0.0103-2.12 0.0206-3.22 0.0313-1.63 0.00424-1.63 0.00424-3.29 0.00858-3.47 0.0112-6.95 0.0363-10.4 0.0617-2.35 0.01-4.7 0.0192-7.05 0.0273-5.77 0.0221-11.5 0.0556-17.3 0.0977-0.66 1.32-1.32 2.64-2 4h-2v-6h2v-3c0.598-0.165 1.2-0.33 1.81-0.5 3.39-2.32 4.21-5.68 5.19-9.5 0.326-2.21 0.552-4.4 0.691-6.63 0.319-2.45 0.931-4.73 1.64-7.1 0.86-2.92 1.67-5.84 2.48-8.77 0.334-1.21 0.669-2.42 1.01-3.67 0.349-1.26 0.698-2.53 1.06-3.83 0.179-0.647 0.357-1.29 0.541-1.96 2.31-8.38 4.61-16.8 6.79-25.2 0.831-3 1.68-5.94 2.79-8.85 0.66-0.33 1.32-0.66 2-1z" fill="#050609"/>
<path transform="translate(1096,454)" d="m0 0v2h-4v2h-14v3l4 1c-15.7 4.13-15.7 4.13-22 1-2.72 0.363-5.37 0.796-8.06 1.31-0.746 0.131-1.49 0.262-2.26 0.396-1.91 0.359-3.8 0.818-5.68 1.29-0.33 0.66-0.66 1.32-1 2h-9c0.752 3.28 0.752 3.28 4 5h-17v-1c3.46-0.495 3.46-0.495 7-1-1.28-3.5-1.28-3.5-3-7-0.99-0.33-1.98-0.66-3-1v-2c-4.29-0.66-8.58-1.32-13-2v-5h-9c-1-6.75-1-6.75-1-9-0.66-0.66-1.32-1.32-2-2 27.8-12.7 71.9 0.769 99 11z" fill="#020305"/>
<path transform="translate(592 1111)" d="m0 0c5.03 3.83 8.74 8.95 10.6 15 0.742 8.19 1.55 17.3-4 24-5.57 5.85-9.63 7.14-17.7 7.44-7.05-0.0294-11.1-1.74-16.3-6.44-0.532-0.458-1.06-0.915-1.61-1.39-5.02-5.84-3.97-14.4-3.58-21.7 0.577-5.86 3.38-9.41 7.57-13.3 7.21-5.59 16.4-6.19 25-3.62z" fill="#020305"/>
<path transform="translate(815 1109)" d="m0 0c2.71 0.0469 2.71 0.0469 5.38 0.938 3.46 3.9 5.68 8.38 8 13 1.12 2.09 2.24 4.17 3.38 6.25 0.461 0.892 0.923 1.78 1.4 2.7 1.06 2.19 1.06 2.19 3.23 3.05-0.0105-0.651-0.0209-1.3-0.0317-1.97-0.0416-2.95-0.0676-5.89-0.0933-8.84-0.0168-1.02-0.0335-2.05-0.0508-3.1-0.00645-0.983-0.0129-1.97-0.0195-2.98-0.0105-0.906-0.0209-1.81-0.0317-2.75 0.227-2.36 0.227-2.36 2.23-5.36 3.56-0.25 3.56-0.25 7 0 1 1 1 1 1.12 2.87-0.00222 0.815-0.00444 1.63-0.00673 2.47-7.55e-5 0.921-1.51e-4 1.84-2.29e-4 2.79-0.00516 1-0.0103 2-0.0156 3.03-0.00141 1.02-0.00283 2.04-0.00429 3.09-0.00562 3.27-0.0182 6.54-0.0309 9.81-0.00501 2.21-0.00958 4.42-0.0137 6.63-0.0111 5.43-0.0278 10.9-0.0488 16.3-1.44 0.0392-2.89 0.0671-4.33 0.0903-0.804 0.0168-1.61 0.0335-2.43 0.0508-3.57-0.225-4.89-1.5-7.24-4.14-1.91-2.87-3.56-5.84-5.19-8.88-0.438-0.79-0.875-1.58-1.33-2.39-2.27-4.16-4.17-8.16-5.49-12.7-2.2 1.78-2.2 1.78-2.21 4.08 0.0168 0.837 0.0337 1.67 0.051 2.54 0.011 0.918 0.0219 1.84 0.0332 2.78 0.0213 0.962 0.0425 1.92 0.0645 2.92 0.0346 1.89 0.0647 3.78 0.0898 5.68 0.018 0.841 0.0359 1.68 0.0544 2.55-0.0858 2.59-0.508 4.94-1.08 7.46-7.75 0.125-7.75 0.125-10-1-0.0248-5.14-0.0429-10.3-0.0549-15.4-0.00501-1.75-0.0118-3.49-0.0205-5.24-0.0122-2.52-0.0178-5.04-0.0222-7.56-0.00516-0.773-0.0103-1.55-0.0156-2.34-4.65e-4 -4.56 0.21-8.94 1.11-13.4 2.36-2.36 3.36-2.57 6.62-2.94z" fill="#020305"/>
<path transform="translate(1071 1110)" d="m0 0c0.886-0.0206 1.77-0.0412 2.69-0.0625 6.37-0.0377 11.5 0.608 16.5 4.94 2.02 4.27 2.83 8.91 1.51 13.5-0.824 1.92-0.824 1.92-2.39 4.86h-2c0.375 3.23 0.697 5.54 2.5 8.28 1.82 3.3 2 5.78 2.19 9.53 0.0986 1.74 0.0986 1.74 0.199 3.52 0.0561 1.32 0.0561 1.32 0.113 2.67-1.46 0.054-2.92 0.0928-4.38 0.125-0.812 0.0232-1.62 0.0464-2.46 0.0703-2.16-0.195-2.16-0.195-4.16-2.2-0.874-3.32-1.53-6.67-2.22-10-0.539-3.06-0.539-3.06-2.78-4.97h-5c-0.66 5.94-1.32 11.9-2 18-9-1-9-1-11-2-0.0247-5.93-0.0429-11.9-0.0549-17.8-0.00503-2.02-0.0119-4.03-0.0205-6.05-0.0121-2.9-0.0178-5.79-0.0222-8.69-0.00516-0.903-0.0103-1.81-0.0156-2.74-7.55e-5 -0.841-1.51e-4 -1.68-2.29e-4 -2.55-0.00222-0.739-0.00444-1.48-0.00673-2.24 0.12-1.96 0.12-1.96 1.12-4.96 3.59-1.79 7.74-1.23 11.7-1.25z" fill="#050609"/>
<path transform="translate(914,1110)" d="m0 0c2.42 2.42 1.53 8.59 1.72 11.9-0.0674 2.99-0.0674 2.99 1.28 4.12 2.53 0.237 5.03 0.422 7.56 0.562 1.07 0.0648 1.07 0.0648 2.15 0.131 1.76 0.106 3.52 0.207 5.28 0.307-0.0232-1.06-0.0464-2.12-0.0703-3.21-0.0188-1.39-0.037-2.78-0.0547-4.16-0.0168-0.699-0.0335-1.4-0.0508-2.12-0.0177-1.84 0.0727-3.67 0.176-5.51 2-2 2-2 5.5-2.25 3.5 0.25 3.5 0.25 5.5 2.25 1.46 6.19 1.1 12.9 1.12 19.2 0.00467 0.768 0.00935 1.54 0.0142 2.33-0.012 4.26-0.395 8.21-1.14 12.4-0.0404 1.77-0.043 3.54 0 5.31 0.0374 1.56 0.0471 3.13 0 4.69-0.33 0.33-0.66 0.66-1 1-2-0.0508-2-0.0508-4.44-0.312-0.803-0.0786-1.61-0.157-2.43-0.238-2.13-0.449-2.13-0.449-4.13-2.45-0.306-2.73-0.511-5.38-0.625-8.12-0.0387-0.754-0.0773-1.51-0.117-2.29-0.0943-1.86-0.177-3.73-0.258-5.59h-14v18c-8.4 0.977-8.4 0.977-11 1-2.65-2.65-2.24-4.61-2.25-8.22 0.00719-0.852 0.0144-1.7 0.0218-2.58 4.58e-4 -0.876 9.16e-4 -1.75 0.00139-2.65 0.00302-1.85 0.0109-3.71 0.0233-5.56 0.0182-2.84 0.0205-5.67 0.0203-8.51 0.00492-1.8 0.0107-3.6 0.0176-5.4 0.00111-0.848 0.00223-1.7 0.00337-2.57 0.00638-0.794 0.0128-1.59 0.0193-2.41 0.00381-0.696 0.00762-1.39 0.0116-2.11 0.143-2.13 0.445-3.96 1.13-5.99 3.25-1.63 6.39-1.11 10-1z" fill="#050609"/>
<path transform="translate(746 1110)" d="m0 0c1.31-0.0561 1.31-0.0561 2.65-0.113 2.41 0.426 2.41 0.426 4.07 2.02 7.4 13.3 10.1 30.7 13.3 45.4-1.6 0.108-3.21 0.186-4.81 0.25-0.893 0.0464-1.79 0.0928-2.71 0.141-2.48-0.391-2.48-0.391-4.23-2.2-1.51-2.64-2.39-5.28-3.25-8.19-5.91-1.33-5.91-1.33-11.4 0.5-2 3.07-3.31 6.08-4.62 9.5h-9c-1.4-2.8-0.59-4.14 0.258-7.14 0.294-1.05 0.587-2.09 0.89-3.17 0.323-1.12 0.645-2.23 0.977-3.38 0.322-1.13 0.644-2.26 0.975-3.42 6.79-23.6 6.79-23.6 9.9-28.9 2.44-1.22 4.21-1.24 6.94-1.31z" fill="#020305"/>
<path transform="translate(672 1110)" d="m0 0c1.13-0.00258 2.25-0.00516 3.41-0.00781 2.96 0.133 2.96 0.133 5.96 1.13 2.15 3.23 2.2 4.28 2 8-1.06 0.0258-2.12 0.0516-3.22 0.0781-11.2 0.0281-11.2 0.0281-20.8 4.92-2.96 3.81-4.02 6.85-3.94 11.7 1.39 4.9 2.9 7.87 7.19 10.7 3.77 2.01 6.61 1.64 10.8 0.625 0.501-3.33 0.501-3.33 0-7-1.96-1.39-3.96-2.73-6-4-0.375-2.75-0.375-2.75 0-5 2.99-1.49 5.74-1.13 9.06-1.12 1.27-0.00258 2.54-0.00516 3.85-0.00781 3.09 0.133 3.09 0.133 4.09 1.13 0.335 3.78 0.325 7.58 0.375 11.4 0.0561 1.6 0.0561 1.6 0.113 3.23 0.0879 7.76 0.0879 7.76-2.49 10.6-3.81 1.01-7.4 1.25-11.3 1.17-0.76-0.0102-1.52-0.0203-2.3-0.0308-7.91-0.219-13.9-1.97-19.8-7.49-4.3-5.14-5.91-10.8-5.61-17.5 1.08-7.73 5.19-13.4 11.1-18.4 5.88-3.43 10.9-4.14 17.6-4.12z" fill="#020305"/>
<path transform="translate(648,911)" d="m0 0c3.66 2.44 3.7 3.5 4.8 7.66 0.316 1.18 0.632 2.35 0.957 3.56 0.329 1.27 0.657 2.53 0.996 3.84 0.346 1.3 0.694 2.6 1.04 3.91 0.717 2.68 1.43 5.36 2.14 8.03 1.63 6.12 3.35 12.2 5.07 18.3 0.99 3.53 1.98 7.05 3 10.7h-34c-1.46-2.93-0.444-4.55 0.477-7.65 0.339-1.16 0.678-2.32 1.03-3.52 0.37-1.24 0.74-2.49 1.12-3.77 0.746-2.55 1.49-5.11 2.23-7.66 0.367-1.26 0.733-2.52 1.11-3.81 1.59-5.55 3.05-11.1 4.48-16.7 2.06-8.04 2.06-8.04 3.55-11.9 0.66-0.33 1.32-0.66 2-1z" fill="#FDFDFD"/>
<path transform="translate(1142 1110)" d="m0 0c1.16-0.00258 2.32-0.00516 3.51-0.00781 1.21 0.00773 2.43 0.0155 3.68 0.0234 1.21-0.00773 2.43-0.0155 3.68-0.0234 1.74 0.00387 1.74 0.00387 3.51 0.00781 1.07 0.00226 2.13 0.00451 3.23 0.00684 2.58 0.259 2.58 0.259 4.58 2.26-0.577 6.58-0.577 6.58-2 8-3.21 0.27-6.41 0.446-9.63 0.605-3.48-0.108-3.48-0.108-6.37 1.39-0.0406 1.67-0.0427 3.33 0 5 1.61 0.0735 1.61 0.0735 3.25 0.148 1.4 0.075 2.79 0.151 4.19 0.227 0.707 0.0309 1.41 0.0619 2.14 0.0938 1.81 0.104 3.62 0.31 5.42 0.531 1.48 2.96 1.06 5.74 1 9-0.736 0.0606-1.47 0.121-2.23 0.184-1.46 0.126-1.46 0.126-2.96 0.254-0.963 0.0812-1.93 0.162-2.92 0.246-2.68 0.293-5.26 0.743-7.89 1.32-0.21 4.14-0.21 4.14 1 8 2.69 0.286 5.3 0.467 8 0.562 7.88 0.318 7.88 0.318 9 1.44 0.0409 2.33 0.0424 4.67 0 7-8.33 2.78-19.3 2.85-28 2-2.41-2.41-2.25-2.95-2.26-6.23-0.0063-0.874-0.0126-1.75-0.0191-2.65 0.00405-0.946 0.0081-1.89 0.0123-2.87-0.00191-0.969-0.00383-1.94-0.0058-2.94-0.00136-2.05 0.00234-4.1 0.0107-6.15 0.0107-3.15 1.07e-4 -6.29-0.0127-9.44 0.00132-1.99 0.00388-3.98 0.00781-5.97-0.00405-0.946-0.0081-1.89-0.0123-2.87 0.0063-0.874 0.0126-1.75 0.0191-2.65 0.00159-0.771 0.00318-1.54 0.00482-2.34 0.631-4.72 4.19-4.15 8.07-4.16z" fill="#050609"/>
<path transform="translate(995 1110)" d="m0 0c1.12-0.00129 2.23-0.00258 3.38-0.00391 1.17 0.00387 2.34 0.00773 3.55 0.0117 1.17-0.00387 2.35-0.00773 3.56-0.0117 1.67 0.00193 1.67 0.00193 3.38 0.00391 1.03 0.00113 2.06 0.00226 3.12 0.00342 2.38 0.129 2.38 0.129 3.38 1.13v8c-5.28 0.66-10.6 1.32-16 2v7c1.61 0.0909 1.61 0.0909 3.25 0.184 1.4 0.0844 2.79 0.169 4.19 0.254 0.707 0.0393 1.41 0.0786 2.14 0.119 5.31 0.33 5.31 0.33 6.42 1.44 0.0409 2.33 0.0424 4.67 0 7-0.892 0.0606-1.78 0.121-2.7 0.184-1.76 0.126-1.76 0.126-3.55 0.254-1.16 0.0812-2.32 0.162-3.52 0.246-2.54 0.249-4.79 0.598-7.23 1.32 0.144 1.3 0.289 2.6 0.438 3.94 0.0812 0.731 0.162 1.46 0.246 2.21 0.135 1.86 0.135 1.86 1.32 2.85 2.51 0.0469 4.99 0.046 7.5 0s4.99-0.0469 7.5 0c1 1 1 1 1.06 4.56-0.0206 1.13-0.0412 2.27-0.0625 3.44-4.61 1.28-9.18 1.43-13.9 1.69-0.894 0.0599-1.79 0.12-2.71 0.182-4.61 0.25-8.17 0.408-12.4-1.87-0.788-9.57-1.11-19.1-1.12-28.7-0.00451-1.04-0.00902-2.08-0.0137-3.15 0.00193-0.986 0.00387-1.97 0.00586-2.99 0.00113-0.877 0.00226-1.75 0.00342-2.66 0.135-2.62 0.432-4.99 1.13-7.52 2.65-1.32 4.67-1.13 7.63-1.13z" fill="#050609"/>
<path transform="translate(356,606)" d="m0 0 1 2h-5v2c2.97 0.495 2.97 0.495 6 1v5h2v2c0.577 0.247 1.15 0.495 1.75 0.75 2.6 1.44 4.33 2.99 6.25 5.25v3h2c0.505 3.08 1 6.17 1.5 9.25 0.143 0.873 0.286 1.75 0.434 2.64 0.203 1.27 0.203 1.27 0.41 2.56 0.126 0.775 0.251 1.55 0.381 2.35 0.275 2.2 0.275 2.2 0.275 6.2h2c-0.54 2.34-1.19 4.54-2 6.81-1.06 3.39-1.58 6.66-2 10.2-0.66-0.99-1.32-1.98-2-3-0.66-0.66-1.32-1.32-2-2-0.392-2.43-0.7-4.8-0.938-7.25-0.62-6.09-1.51-10.9-5.73-15.6-4.97-3.9-10.2-6.77-15.9-9.48-0.708-0.338-1.42-0.675-2.15-1.02-4.69-2.15-9.25-3.55-14.3-4.66v-2c-0.639-0.206-1.28-0.413-1.94-0.625-2.06-1.38-2.06-1.38-2.81-4.5-0.0825-0.949-0.165-1.9-0.25-2.88h3c0.33 1.65 0.66 3.3 1 5 0.33-1.65 0.66-3.3 1-5 1.03-0.0561 1.03-0.0561 2.08-0.113 1.35-0.0986 1.35-0.0986 2.73-0.199 1.34-0.087 1.34-0.087 2.71-0.176 2.83-0.584 3.62-1.38 5.48-3.51 2.19-0.688 2.19-0.688 4-1v-2c3.63-0.33 7.26-0.66 11-1z" fill="#050609"/>
<path transform="translate(610,446)" d="m0 0v2c-3.95 0.179-6.6 0.0935-10-2 0.165 0.763 0.33 1.53 0.5 2.31 0.488 2.62 0.5 5.03 0.5 7.69-3.85 0.737-7.11 1.09-11 0.562-6.63-0.899-13.3-0.642-20-0.562-0.495 1.49-0.495 1.49-1 3h-12c-0.33-1.32-0.66-2.64-1-4-0.88-0.049-1.76-0.098-2.67-0.148-1.16-0.0748-2.32-0.15-3.52-0.227-1.15-0.0696-2.3-0.139-3.48-0.211-3.13-0.389-5.48-1.1-8.33-2.41v-3c0.66-0.33 1.32-0.66 2-1-2.17-2.5-3.73-3.44-7-4v-2c25.9-3.07 51.6-2.52 77 4z" fill="#020305"/>
<path transform="translate(447,1110)" d="m0 0c2 2 2 2 2.12 5.62-0.0412 1.11-0.0825 2.23-0.125 3.38-0.976 0.049-1.95 0.098-2.96 0.148-1.27 0.0748-2.54 0.15-3.86 0.227-1.9 0.104-1.9 0.104-3.83 0.211-3.48 0.175-3.48 0.175-6.36 2.41 0.717 3.25 0.717 3.25 3.8 4.65 2.33 1.15 4.67 2.29 7 3.44 3.89 2.33 6.18 4.87 8.2 8.91 0.625 5.04 0.916 8.77-2.19 12.9-0.928 0.681-1.86 1.36-2.81 2.06-0.718 0.53-1.44 1.06-2.18 1.61-3.63 1.79-6.86 1.84-10.8 1.77-0.699 0.0116-1.4 0.0232-2.12 0.0352-4.43-0.0251-7.41-0.585-10.9-3.41-0.312-2.69-0.312-2.69 0-5 3.74-2.45 7.44-2.23 11.8-2.12 0.697 0.00902 1.39 0.018 2.11 0.0273 1.71 0.0235 3.42 0.0593 5.14 0.0977v-6c-0.797-0.375-1.59-0.75-2.41-1.14-14.5-7.02-14.5-7.02-16.3-11.9-0.831-4.33-0.418-7.46 1.69-11.3 5.9-8.05 15.9-7.55 25.1-6.62z" fill="#020305"/>
<path transform="translate(722,645)" d="m0 0c0.66 0.33 1.32 0.66 2 1-1.11 23.7-6.97 44.5-17 66-0.501 1.12-1 2.24-1.52 3.39-1.48 2.61-1.48 2.61-4.48 3.61-5.85-9.17-1.47-27.7 0.52-37.6 2.89-11.2 9.02-22.6 16.5-31.4 0.784-0.99 1.57-1.98 2.38-3 0.536-0.66 1.07-1.32 1.62-2z" fill="#FDFDFD"/>
<path transform="translate(860,645)" d="m0 0c1.73 0.105 1.73 0.105 4 1 1.64 2.09 3.01 4.06 4.38 6.31 0.392 0.633 0.784 1.27 1.19 1.92 12.2 19.9 16.7 40.6 14.4 63.8-4.43-1.47-5.93-4.77-7.94-8.69-0.522-0.998-0.522-0.998-1.05-2.02-3.48-6.87-5.75-13.9-8.01-21.3-0.728-1.98-1.46-3.96-2.19-5.94-2.09-6.17-2.77-12.3-3.42-18.8-0.193-3.15-0.193-3.15-1.39-5.27-0.0703-1.87-0.0843-3.75-0.0625-5.62 0.00902-1 0.018-2.01 0.0273-3.04 0.0116-0.771 0.0232-1.54 0.0352-2.34z" fill="#FDFDFD"/>
<path transform="translate(503,1110)" d="m0 0c2.01 2.01 1.26 6 1.32 8.75 0.0208 0.775 0.0416 1.55 0.063 2.35 0.0656 2.49 0.124 4.97 0.183 7.46 0.0432 1.68 0.0868 3.36 0.131 5.04 0.107 4.13 0.209 8.26 0.307 12.4 1.14 0.0606 2.29 0.121 3.46 0.184 1.49 0.0844 2.98 0.169 4.47 0.254 0.755 0.0393 1.51 0.0786 2.29 0.119 5.66 0.33 5.66 0.33 6.78 1.44 0.133 1.81 0.133 1.81 0.125 4 0.00387 1.08 0.00387 1.08 0.00781 2.19-0.133 1.81-0.133 1.81-1.13 2.81-1.9 0.0997-3.81 0.131-5.71 0.133-1.16 0.00129-2.32 0.00258-3.52 0.00391-1.22-0.00387-2.45-0.00773-3.71-0.0117-1.22 0.00387-2.44 0.00773-3.69 0.0117-1.74-0.00193-1.74-0.00193-3.52-0.00391-1.07-0.00113-2.14-0.00226-3.25-0.00342-2.6-0.129-2.6-0.129-4.6-1.13-0.0741-6.07-0.129-12.1-0.165-18.2-0.0151-2.07-0.0356-4.13-0.0615-6.2-0.0363-2.97-0.0534-5.93-0.0667-8.9-0.0155-0.925-0.031-1.85-0.0469-2.8-3.4e-4 -1.29-3.4e-4 -1.29-6.87e-4 -2.61-0.00666-0.757-0.0133-1.51-0.0202-2.29 1.04-5.73 5.41-5.36 10.4-4.99z" fill="#06070A"/>
<path transform="translate(586,1119)" d="m0 0c5.87 6.14 6.34 10.6 6.29 18.8-0.395 4.29-1.37 6.09-4.29 9.18-3.48 1.74-7.2 1.58-11 1-4.16-3.01-6.05-5.97-7-11-0.0823-6.3 0.645-11.2 5-16 3.89-2.57 6.59-3.92 11-2z" fill="#FDFDFD"/>
<path transform="translate(731,627)" d="m0 0v2c0.99 0.33 1.98 0.66 3 1 0.201 3.72 0.152 4.77-2 8h-2c-0.66 3.96-1.32 7.92-2 12h-2c0.33-2.31 0.66-4.62 1-7h-2v3c-0.576 0.0567-1.15 0.113-1.75 0.172-3.27 1.2-4.35 3.25-6.32 6.08-0.672 0.954-1.34 1.91-2.04 2.89-1.25 1.87-2.44 3.78-3.59 5.72-0.434 0.706-0.869 1.41-1.32 2.14h-1c0.0116-0.892 0.0232-1.78 0.0352-2.7 0.00902-1.17 0.018-2.34 0.0273-3.55 0.0116-1.16 0.0232-2.32 0.0352-3.52 0.0249-3.1 0.0249-3.1-0.684-5.51-0.414-1.72-0.414-1.72 0.898-4.04 0.835-1.33 0.835-1.33 1.69-2.69 1.27-3.96 2.26-7.91 3-12l2 2c0.804-0.66 1.61-1.32 2.44-2 4-2.72 7.9-2.37 12.6-2z" fill="#050609"/>
<path transform="translate(360,583)" d="m0 0 1 2c2.36 0.442 4.62 0.755 7 1 0.813 0.0928 1.63 0.186 2.46 0.281 2.18 0.248 4.36 0.484 6.54 0.719v10h-2v2c-2.23 2.17-3.58 2.95-6.69 3.33-0.947-0.0258-1.89-0.0516-2.87-0.0781-1.43-0.0232-1.43-0.0232-2.88-0.0469-2.56-0.203-2.56-0.203-5.56-1.2v2h-6c0.99-0.66 1.98-1.32 3-2-0.743-0.65-0.743-0.65-1.5-1.31-1.5-1.69-1.5-1.69-1.5-4.69 1.33-1.33 2.67-2.67 4-4 0.688-1.66 1.36-3.32 2-5 1.62-1.81 1.62-1.81 3-3z" fill="#06070A"/>
<path transform="translate(838,1110)" d="m0 0c3.56-0.25 3.56-0.25 7 0 1 1 1 1 1.11 4.14-1.59e-4 1.39-0.00585 2.78-0.0159 4.17-0.00141 0.731-0.00283 1.46-0.00429 2.22-0.00561 2.34-0.0182 4.69-0.0309 7.03-0.00501 1.59-0.00958 3.17-0.0137 4.76-0.011 3.89-0.0283 7.79-0.0488 11.7-6.7-0.773-6.7-0.773-9.38-2.81-1.6-2.15-2.25-3.56-2.62-6.19h2c-0.0105-0.651-0.0209-1.3-0.0317-1.97-0.0416-2.95-0.0676-5.89-0.0933-8.84-0.0168-1.02-0.0335-2.05-0.0508-3.1-0.00645-0.983-0.0129-1.97-0.0195-2.98-0.0105-0.906-0.0209-1.81-0.0317-2.75 0.227-2.36 0.227-2.36 2.23-5.36z" fill="#08090C"/>
<path transform="translate(700,705)" d="m0 0c-0.0232 0.687-0.0464 1.37-0.0703 2.08-0.018 0.901-0.0361 1.8-0.0547 2.73-0.0232 0.893-0.0464 1.79-0.0703 2.71 0.0125 2.73 0.0125 2.73 2.2 5.48 1.65-0.66 3.3-1.32 5-2 0.364 6.44 0.364 6.44-1.14 8.75-2.74 1.83-4.65 1.29-7.86 0.871-4.57-0.609-4.57-0.609-9 0.375-1.93-3.02-3.14-5.55-4-9-0.66-0.33-1.32-0.66-2-1h2c0.268-0.722 0.536-1.44 0.812-2.19 2.88-6.82 2.88-6.82 6-9.19 2.96-0.846 5.22-0.299 8.19 0.375z" fill="#050609"/>
<path transform="translate(343,908)" d="m0 0c0.33 0.99 0.66 1.98 1 3h-2v2c-1.79 0.124-1.79 0.124-3.62 0.25-5.79 0.745-9.11 3.4-13.1 7.62-2.39 3.04-2.39 3.04-3.94 6.44-1.38 2.69-1.38 2.69-4.38 3.69 0.186-0.639 0.371-1.28 0.562-1.94 0.144-0.681 0.289-1.36 0.438-2.06-0.33-0.33-0.66-0.66-1-1-1.61-6.8-0.581-11.9 3-18 7.07-6.1 15.4-4.76 23 0z" fill="#050609"/>
<path transform="translate(794,909)" d="m0 0 2 2c-0.785 0.211-1.57 0.423-2.38 0.641-2.84 1.13-2.84 1.13-3.84 3.97-2.07 7.89-2.07 7.89 0.215 15.4 1.78 2.16 3.61 4.24 5.54 6.27 1.46 1.73 1.46 1.73 1.46 3.73h-7v-2h-2v-2c-1.32-0.33-2.64-0.66-4-1v-2c-1.32-0.33-2.64-0.66-4-1-0.753-4.24-1.13-8.38-1.25-12.7-0.0258-0.911-0.0516-1.82-0.0781-2.76 0.388-3.02 1.23-4.38 3.33-6.55h2v-2c3.58-1.24 6.35-0.874 10 0z" fill="#050609"/>
<path transform="translate(736,549)" d="m0 0c4.27 8.14 7.88 16.4 11 25 0.483 1.33 0.483 1.33 0.977 2.68 1.32 3.77 2.02 6.24 2.02 10.3h-2v-2c-0.577-0.289-1.15-0.577-1.75-0.875-2.08-1.04-4.17-2.08-6.25-3.12v-4h-2v-5h-2v-6h-2v-5h-4c-1.22-6.32-1.22-6.32-0.25-9.38 1.74-2.26 3.45-2.62 6.25-2.62z" fill="#050609"/>
<path transform="translate(995 1110)" d="m0 0c1.12-0.00129 2.23-0.00258 3.38-0.00391 1.17 0.00387 2.34 0.00773 3.55 0.0117 1.17-0.00387 2.35-0.00773 3.56-0.0117 1.67 0.00193 1.67 0.00193 3.38 0.00391 1.03 0.00113 2.06 0.00226 3.12 0.00342 2.38 0.129 2.38 0.129 3.38 1.13v8c-7.92 0.495-7.92 0.495-16 1-0.33-1.32-0.66-2.64-1-4 0.33-0.33 0.66-0.66 1-1-2.64-0.33-5.28-0.66-8-1l-2 4v-4h-2v-3c2.65-1.32 4.67-1.13 7.63-1.13z" fill="#020305"/>
<path transform="translate(888,703)" d="m0 0c3 3.62 3 3.62 3 7h4v8h-2c-0.247 0.949-0.495 1.9-0.75 2.88-1.25 3.12-1.25 3.12-3.12 4.5-2.12 0.625-2.12 0.625-6.12 0.625-0.66-3.3-1.32-6.6-2-10 0.99 0.495 0.99 0.495 2 1 0.33-3.63 0.66-7.26 1-11 0.66 0.33 1.32 0.66 2 1 0.66-1.32 1.32-2.64 2-4z" fill="#06070A"/>
<path transform="translate(797,1027)" d="m0 0c1.71 0.133 3.42 0.223 5.13 0.281 0.971 0.0374 1.94 0.0748 2.94 0.113 2.04 0.0706 4.08 0.141 6.12 0.211 0.968 0.0374 1.94 0.0748 2.93 0.113 0.886 0.0303 1.77 0.0606 2.68 0.0918 2.18 0.189 2.18 0.189 4.18 1.19v4c-4.36 0.0247-8.72 0.0429-13.1 0.0549-1.48 0.00503-2.97 0.0119-4.45 0.0205-2.13 0.0121-4.26 0.0178-6.4 0.0222-1.28 0.00524-2.57 0.0105-3.89 0.0159-3.19-0.114-3.19-0.114-6.19-1.11v-4c3.93-1.52 6-2.09 10-1z" fill="#050609"/>
<path transform="translate(703,618)" d="m0 0c1.98 0.66 3.96 1.32 6 2-0.33 0.66-0.66 1.32-1 2h-2v3h4v7h-2c-0.33-0.66-0.66-1.32-1-2l-2 2c-0.33-0.99-0.66-1.98-1-3h-2v3c-0.99-0.33-1.98-0.66-3-1v-2h-2c-0.124 0.742-0.247 1.49-0.375 2.25-0.603 2.65-1.04 4.54-2.62 6.75-2.62 0.75-2.62 0.75-5 1-0.33-0.99-0.66-1.98-1-3 1.41-2.2 1.41-2.2 3.5-4.69 0.732-0.878 1.46-1.76 2.22-2.66 3.07-3.57 6.14-7.14 9.28-10.7z" fill="#050609"/>
<path transform="translate(848,716)" d="m0 0c0.66 0.33 1.32 0.66 2 1v3h2v3h2c0.99 3.3 1.98 6.6 3 10h2v3h2c1.46 2.65 2 3.89 2 7h-4c-1.96-2.53-1.96-2.53-3.94-5.94-0.343-0.591-0.687-1.18-1.04-1.79-1.01-1.75-2.02-3.51-3.02-5.27-0.841-1.33-0.841-1.33-1.7-2.69-3.46-5.6-3.46-5.6-2.61-9.37 0.433-0.639 0.866-1.28 1.31-1.94z" fill="#050609"/>
<path transform="translate(1075 1118)" d="m0 0c3 0.25 3 0.25 5 2.25 0.195 2.38 0.195 2.38 0.125 5.12-0.018 0.91-0.0361 1.82-0.0547 2.76-0.0232 0.699-0.0464 1.4-0.0703 2.12-1.48 0.0269-2.96 0.0463-4.44 0.0625-1.24 0.0174-1.24 0.0174-2.5 0.0352-2.07-0.0977-2.07-0.0977-3.07-1.1-0.168-2-0.168-2-0.188-4.44-0.0142-0.803-0.0284-1.61-0.043-2.43 0.393-3.63 1.75-4.09 5.23-4.38z" fill="#FDFDFD"/>
<path transform="translate(1156 1110)" d="m0 0c0.98-0.0142 1.96-0.0284 2.97-0.043 2.53 0.23 2.53 0.23 4.53 2.23-0.577 6.58-0.577 6.58-2 8-2.67 0.141-5.32 0.0425-8 0 0.33-0.99 0.66-1.98 1-3-0.66-0.33-1.32-0.66-2-1v-3c-1.32-0.66-2.64-1.32-4-2 2.6-1.3 4.6-1.17 7.5-1.19z" fill="#020305"/>
<path transform="translate(991,444)" d="m0 0c0.66 0.66 1.32 1.32 2 2 2.07 0.643 2.07 0.643 4 1-6.15 4.1-14 3.64-21.1 2.5-0.619-0.165-1.24-0.33-1.88-0.5l2-1v-2c5.23-1.74 9.48-2.37 15-2z" fill="#020305"/>
<path transform="translate(627,969)" d="m0 0h2c-0.325 0.888-0.325 0.888-0.656 1.79-1.79 4.92-1.79 4.92-2.28 10.1-0.0206 0.701-0.0412 1.4-0.0625 2.12-2 1.81-2 1.81-4 3v-3c-2.57 3.01-3.52 5.36-4.19 9.25-0.238 1.34-0.238 1.34-0.48 2.7-0.11 0.675-0.219 1.35-0.332 2.05h-2c-1.08-8.36-1.08-8.36 1.38-12.1 1.22-1.29 2.46-2.56 3.73-3.81 3.19-3.53 4.97-7.78 6.89-12.1z" fill="#050609"/>
<path transform="translate(744,1124)" d="m0 0c0.99 0.33 1.98 0.66 3 1 1.81 4.09 2.21 7.56 2 12h-7c-1.19-3.43-0.802-5.38 0.438-8.75 0.287-0.799 0.575-1.6 0.871-2.42 0.228-0.603 0.456-1.21 0.691-1.83z" fill="#FDFDFD"/>
<path transform="translate(284,947)" d="m0 0h3c1.41 8.28 0.434 15.8-1 24h-1c-0.228-2.05-0.456-4.1-0.684-6.15-0.135-1.86-0.135-1.86-1.32-2.85-0.0992-2.14-0.13-4.29-0.125-6.44-0.00258-1.17-0.00516-2.35-0.00781-3.56 0.133-3 0.133-3 1.13-5z" fill="#050609"/>
<path transform="translate(585,1015)" d="m0 0c4 2 4 2 4.81 4.25 0.21 3.08-0.182 5.74-0.812 8.75-1.75 0.688-1.75 0.688-4 1-1.32-0.99-2.64-1.98-4-3 1.32-3.63 2.64-7.26 4-11z" fill="#050609"/>
<path transform="translate(997,451)" d="m0 0c-2.45 2.97-4.19 3.6-8 4-3.34 0.0716-6.66 0.0583-10 0 0.33-1.32 0.66-2.64 1-4 5.94-0.893 11.1-0.97 17 0z" fill="#020305"/>
<path transform="translate(1090,1144)" d="m0 0h1c0.33 4.29 0.66 8.58 1 13-6.84 0.195-6.84 0.195-9 0-2.57-2.57-2.54-4.48-3-8h2c3 3.46 3 3.46 3 6h2c0.33-0.66 0.66-1.32 1-2v2h2v-11z" fill="#020305"/>
<path transform="translate(724,532)" d="m0 0c3.24 1.04 4.6 2.61 6.31 5.44 1.69 3.56 1.69 3.56 0.688 6.56-2.8-0.386-3.82-0.801-5.75-2.94-1.25-2.06-1.25-2.06-1.25-4.06h2v-2h-2v-3z" fill="#050609"/>
<path transform="translate(699,987)" d="m0 0c4.88 1.75 4.88 1.75 6 4 0.0402 2.33 0.0432 4.67 0 7-0.701-0.309-1.4-0.619-2.12-0.938-2.96-1.1-5.75-1.63-8.88-2.06 1.32-0.33 2.64-0.66 4-1v-2h3c-0.66-1.65-1.32-3.3-2-5z" fill="#050609"/>
<path transform="translate(1244 906)" d="m0 0c1.21 0.0406 1.21 0.0406 2.45 0.082 0.615 0.0348 1.23 0.0696 1.86 0.105 0.33 0.66 0.66 1.32 1 2h-7c-0.33 0.99-0.66 1.98-1 3h-3c-1.69 1.44-1.69 1.44-3 3 0.794-5.88 2.54-8.45 8.69-8.19z" fill="#050609"/>
<path transform="translate(691,976)" d="m0 0c0.562 1.94 0.562 1.94 1 4-0.33 0.33-0.66 0.66-1 1-2.34-0.287-4.67-0.619-7-1-0.33-1.32-0.66-2.64-1-4 3.05-0.981 4.95-0.981 8 0z" fill="#06070A"/>
<path transform="translate(525,445)" d="m0 0c-0.66 1.32-1.32 2.64-2 4h-13v-2c1.56-0.34 3.12-0.671 4.69-1 0.87-0.186 1.74-0.371 2.64-0.562 2.61-0.427 5.03-0.514 7.68-0.438z" fill="#030406"/>
<path transform="translate(1083,459)" d="m0 0h9v4h-10c0.33-1.32 0.66-2.64 1-4z" fill="#020305"/>
<path transform="translate(1249,910)" d="m0 0v2c-1.32 0.33-2.64 0.66-4 1-0.33 1.32-0.66 2.64-1 4-0.99-0.33-1.98-0.66-3-1-0.33-0.99-0.66-1.98-1-3h2v-3c2.67-1.33 4.17-0.671 7 0z" fill="#050609"/>
<path transform="translate(667,711)" d="m0 0 4 2v8h-3c-1.61-3.21-1.06-6.44-1-10z" fill="#050609"/>
<path transform="translate(297,901)" d="m0 0h3c-0.875 5.75-0.875 5.75-2 8h-3c-0.688-1.75-0.688-1.75-1-4 1.25-2.25 1.25-2.25 3-4z" fill="#06070A"/>
<path transform="translate(369 1e3)" d="m0 0h2c-0.0116 0.626-0.0232 1.25-0.0352 1.9-0.00902 0.817-0.018 1.63-0.0273 2.48-0.0116 0.812-0.0232 1.62-0.0352 2.46-0.047 2.21-0.047 2.21 1.1 4.16h-2c-0.33 0.66-0.66 1.32-1 2-1.45-2.34-2.04-3.58-1.76-6.36 0.209-0.789 0.418-1.58 0.633-2.39 0.204-0.799 0.407-1.6 0.617-2.42 0.168-0.603 0.335-1.21 0.508-1.83z" fill="#06070A"/>
<path transform="translate(1086 457)" d="m0 0c1 0.102 2.01 0.204 3.04 0.309 0.771 0.0838 1.54 0.168 2.34 0.254-0.99 0.33-1.98 0.66-3 1-0.33 0.99-0.66 1.98-1 3v-3h-4c-0.33 0.99-0.66 1.98-1 3l-4-1v-3c2.73-1.36 4.61-0.878 7.62-0.562z" fill="#06070A"/>
<path transform="translate(1160,1112)" d="m0 0h4c-0.875 4.88-0.875 4.88-2 6-2 0.0408-4 0.0425-6 0 0.474-0.433 0.949-0.866 1.44-1.31 1.8-1.71 1.8-1.71 2.56-4.69z" fill="#050609"/>
<path transform="translate(951,1029)" d="m0 0c3.96 0.33 7.92 0.66 12 1v1h-7v2h-4c-0.33-1.32-0.66-2.64-1-4z" fill="#050609"/>
</svg>
